<?xml version="1.0" standalone="no"?>
<!DOCTYPE svg PUBLIC "-//W3C//DTD SVG 20010904//EN"
 "http://www.w3.org/TR/2001/REC-SVG-20010904/DTD/svg10.dtd">
<svg version="1.0" xmlns="http://www.w3.org/2000/svg"
 width="260.000000pt" height="260.000000pt" viewBox="0 0 260.000000 260.000000"
 preserveAspectRatio="xMidYMid meet">
<metadata>
Created by potrace 1.11, written by Peter Selinger 2001-2013
</metadata>
<g transform="translate(0.000000,260.000000) scale(0.100000,-0.100000)"
fill="#000000" stroke="none">
<path d="M400 1295 l0 -845 85 0 85 0 0 763 c0 420 3 766 6 769 11 12 42 -5
49 -25 4 -12 8 -26 10 -32 4 -11 112 -318 155 -440 27 -75 69 -194 210 -595
32 -91 80 -226 106 -300 l49 -135 144 0 144 0 49 135 c26 74 59 167 72 205 13
39 49 142 80 230 32 88 71 198 87 245 17 47 39 108 49 135 10 28 57 163 105
300 48 138 91 257 96 267 5 9 17 15 26 14 17 -3 18 -46 21 -769 l2 -767 85 0
85 0 0 845 0 845 -173 0 -172 0 -219 -622 c-339 -968 -317 -908 -338 -908 -10
0 -21 8 -24 17 -3 10 -10 27 -14 38 -5 11 -50 139 -101 285 -50 146 -116 335
-146 420 -30 85 -72 205 -93 265 -21 61 -64 182 -95 270 -32 88 -62 177 -67
198 l-10 37 -174 0 -174 0 0 -845z"/>
</g>
</svg>
