<svg width="211" height="40" viewBox="0 0 211 40" fill="none" xmlns="http://www.w3.org/2000/svg">
<path d="M9.34688 29.492C9.40493 29.6081 9.46299 29.7823 9.46299 30.0145V31.7562C9.46299 31.9303 9.40493 32.1045 9.34688 32.2787C9.28882 32.3948 9.17271 32.5109 9.11466 32.627C8.99855 32.6851 8.88244 32.8012 8.76633 32.8012C8.65022 32.8592 8.47605 32.8592 8.35994 32.8592C8.24383 32.8592 8.06967 32.8592 7.95356 32.8012C7.83745 32.7431 7.72134 32.6851 7.60523 32.627C7.48911 32.5109 7.43106 32.4528 7.373 32.2787C7.31495 32.1626 7.25689 31.9884 7.25689 31.7562V30.0145C7.25689 29.8403 7.31495 29.6662 7.373 29.492C7.43106 29.3759 7.54717 29.2598 7.60523 29.1437C7.72134 29.0856 7.83745 28.9695 7.95356 28.9695C8.06967 28.9115 8.24383 28.9115 8.35994 28.9115C8.47605 28.9115 8.65022 28.9115 8.76633 28.9695C8.88244 29.0276 8.99855 29.0856 9.11466 29.1437C9.17271 29.2017 9.28882 29.3179 9.34688 29.492ZM20.8999 29.0856C21.074 29.2598 21.1321 29.492 21.1321 29.8403C21.1321 30.1887 21.074 30.479 20.8999 30.5951C20.7837 30.7692 20.5515 30.8273 20.2612 30.8273H18.8679V28.8534H20.2612C20.5515 28.7954 20.7257 28.9115 20.8999 29.0856ZM9.23077 18.2293C9.40493 18.4035 9.46299 18.6357 9.46299 18.984C9.46299 19.3324 9.40493 19.6226 9.23077 19.7388C9.11466 19.9129 8.88244 19.971 8.59216 19.971H7.19884V17.9971H8.59216C8.88244 17.9971 9.0566 18.0552 9.23077 18.2293ZM32.2206 31.9303V34.0203H30.9434V31.9303L29.1437 27.6923H30.3048L31.5239 30.7692L32.7431 27.6923H33.9623L32.2206 31.9303ZM22.2932 11.2627C22.1771 11.4949 22.0029 11.6691 21.8287 11.8433C21.5965 12.0174 21.3643 12.1335 21.074 12.1916C20.7837 12.2496 20.4935 12.3077 20.1451 12.3077C19.6807 12.3077 19.2743 12.2496 18.8679 12.1335C18.4615 12.0174 18.0552 11.7852 17.7068 11.4369L18.4035 10.566C18.6938 10.7402 18.984 10.9724 19.2743 11.0305C19.5646 11.1466 19.8549 11.2046 20.1451 11.2046C20.3193 11.2046 20.6676 11.1466 20.8999 11.0305C21.1901 10.8563 21.2482 10.6241 21.2482 10.3338C21.2482 9.98549 20.8999 9.81132 20.5515 9.69521C20.1451 9.5791 19.3324 9.40493 18.8679 9.17271C18.2293 8.88244 18.0552 8.53411 17.9971 8.35994C17.7649 7.83745 17.939 7.14078 17.9971 6.90856C18.2293 6.32801 18.6938 6.09579 18.984 6.03774C19.2163 5.92163 19.6226 5.92163 19.9129 5.92163C20.3774 5.92163 20.8999 5.97968 21.3062 6.15385C21.7126 6.26996 22.061 6.50218 22.1771 6.56023L21.6546 7.48911C21.5385 7.43106 21.1901 7.25689 20.8418 7.14078C20.6096 7.08273 20.0871 6.96662 19.6226 7.02467C19.4485 7.08273 19.1582 7.14078 19.0421 7.43106C18.926 7.72133 18.984 7.8955 19.1001 8.01161C19.2163 8.12772 19.3904 8.24383 19.8549 8.35994C20.029 8.418 20.6096 8.53411 20.8418 8.59216C21.4224 8.76633 21.6546 8.88244 22.0029 9.17271C22.3512 9.46299 22.4673 9.86938 22.4673 10.2758C22.4673 10.6821 22.4093 11.0305 22.2932 11.2627ZM22.2932 22.119C22.1771 22.3512 22.0029 22.5254 21.8287 22.6996C21.5965 22.8737 21.3643 22.9898 21.074 23.0479C20.7837 23.1059 20.4935 23.164 20.1451 23.164C19.6807 23.164 19.2743 23.1059 18.8679 22.9898C18.4615 22.8737 18.0552 22.6415 17.7068 22.2932L18.4035 21.4224C18.6938 21.5965 18.984 21.8287 19.2743 21.8868C19.5646 22.0029 19.8549 22.061 20.1451 22.061C20.3193 22.061 20.6676 22.0029 20.8999 21.8868C21.1901 21.7126 21.2482 21.4804 21.2482 21.1901C21.2482 20.8418 20.8999 20.6676 20.5515 20.5515C20.1451 20.4354 19.3324 20.2612 18.8679 20.029C18.2293 19.7388 18.0552 19.3904 17.9971 19.2163C17.7649 18.6938 17.939 17.9971 17.9971 17.7649C18.2293 17.1843 18.6938 16.9521 18.984 16.894C19.2163 16.7779 19.6226 16.7779 19.9129 16.7779C20.3774 16.7779 20.8999 16.836 21.3062 17.0102C21.7126 17.1263 22.061 17.3585 22.1771 17.4165L21.6546 18.3454C21.5385 18.2874 21.1901 18.1132 20.8418 17.9971C20.6096 17.939 20.0871 17.8229 19.6226 17.881C19.4485 17.939 19.1582 17.9971 19.0421 18.2874C18.926 18.5776 18.984 18.7518 19.1001 18.8679C19.2163 18.984 19.3904 19.1001 19.8549 19.2163C20.029 19.2743 20.6096 19.3904 20.8418 19.4485C21.4224 19.6226 21.6546 19.7388 22.0029 20.029C22.3512 20.3193 22.4673 20.7257 22.4673 21.1321C22.4673 21.5385 22.4093 21.8868 22.2932 22.119ZM22.3512 33.9623H21.016L19.971 31.9303H18.8679V33.9623H17.6488V27.6923H20.5515C20.8418 27.6923 21.1321 27.7504 21.3643 27.8665C21.5965 27.9826 21.7707 28.1567 21.9448 28.3309C22.119 28.5051 22.1771 28.7373 22.2932 28.9695C22.3512 29.2017 22.4093 29.434 22.4093 29.7823C22.4093 30.0726 22.4093 30.3048 22.3512 30.479C22.2932 30.6531 22.2351 30.8273 22.1771 30.9434C22.061 31.1176 22.0029 31.2337 21.8287 31.3498C21.7126 31.4659 21.5385 31.582 21.3643 31.6981C21.3643 31.6981 21.3062 31.6981 21.3062 31.7562L22.3512 33.9623ZM10.508 11.1466C10.3919 11.3788 10.2177 11.611 9.98549 11.7852C9.75327 11.9594 9.52104 12.0755 9.23077 12.1916C8.94049 12.2496 8.65022 12.3077 8.30189 12.3077C7.95356 12.3077 7.66328 12.2496 7.373 12.1916C7.08273 12.0755 6.85051 11.9594 6.61829 11.7852C6.38607 11.611 6.2119 11.3788 6.09579 11.1466C5.97968 10.9144 5.92163 10.6241 5.92163 10.2758V6.03774H7.19884V10.0435C7.19884 10.2177 7.25689 10.3919 7.31495 10.566C7.373 10.6821 7.48911 10.7983 7.54717 10.9144C7.66328 11.0305 7.77939 11.0885 7.8955 11.0885C8.01161 11.1466 8.18578 11.1466 8.30189 11.1466C8.418 11.1466 8.59216 11.1466 8.70827 11.0885C8.82438 11.0305 8.94049 10.9724 9.0566 10.9144C9.17271 10.8563 9.23077 10.7402 9.28882 10.566C9.34688 10.4499 9.40493 10.2758 9.40493 10.0435V6.03774H10.6821V10.2758C10.6821 10.566 10.6241 10.8563 10.508 11.1466ZM10.6821 23.1059H9.34688L8.35994 21.074H7.25689V23.1059H6.03774V16.836H8.94049C9.23077 16.836 9.52104 16.894 9.75326 17.0102C9.98549 17.1263 10.1597 17.3004 10.3338 17.4746C10.508 17.6488 10.566 17.881 10.6821 18.1132C10.7402 18.3454 10.7983 18.5776 10.7983 18.926C10.7983 19.2163 10.7983 19.4485 10.7402 19.6226C10.6821 19.7968 10.6241 19.971 10.566 20.0871C10.4499 20.2612 10.3919 20.3774 10.2177 20.4935C10.1016 20.6096 9.92743 20.7257 9.75326 20.8418C9.75326 20.8418 9.69521 20.8418 9.69521 20.8999L10.6821 23.1059ZM10.6821 31.9303C10.6821 32.2787 10.6241 32.5689 10.508 32.8012C10.3919 33.0334 10.2177 33.2656 9.98549 33.4398C9.75327 33.6139 9.52104 33.73 9.23077 33.8462C8.94049 33.9042 8.65022 33.9623 8.30189 33.9623C7.95356 33.9623 7.66328 33.9042 7.373 33.8462C7.08273 33.7881 6.85051 33.6139 6.61829 33.4398C6.38607 33.2656 6.2119 33.0334 6.09579 32.8012C5.97968 32.5689 5.92163 32.2787 5.92163 31.9303V29.6662C5.92163 29.3179 5.97968 29.0276 6.09579 28.7954C6.2119 28.5631 6.38607 28.3309 6.61829 28.1567C6.85051 27.9826 7.08273 27.8665 7.373 27.7504C7.66328 27.6923 7.95356 27.6343 8.24383 27.6343C8.53411 27.6343 8.82438 27.6923 9.11466 27.7504C9.40493 27.8665 9.63715 27.9826 9.86938 28.1567C10.1016 28.3309 10.2758 28.5631 10.3919 28.7954C10.508 29.0276 10.566 29.3179 10.566 29.6662V31.9303H10.6821ZM29.2598 16.836H33.9623V17.9971H32.2206V23.164H30.9434V17.9971H29.2017V16.836H29.2598ZM29.2598 5.97968H33.9623V7.08273H30.479V8.53411H32.8012V9.63716H30.479V11.0885H33.9623V12.1916H29.2598V5.97968ZM0 0V40H40V0H0Z" fill="white"/>
<path d="M60 30.6801H62.1V11.6301H62.67L69.39 30.6801H72.96L79.68 11.6301H80.28V30.6801H82.38V9.68008H78.09L71.4 28.7301H70.95L64.26 9.68008H60V30.6801Z" fill="white"/>
<path d="M93.4688 30.9201C96.0187 30.9201 98.4788 29.6001 99.7088 27.6201L98.2988 26.2101C97.4288 27.9501 95.5387 29.1201 93.4688 29.1201C90.4087 29.1201 88.2188 26.9301 87.9487 23.8101H100.069C100.429 18.5601 97.3988 15.4101 93.0788 15.4101C88.9688 15.4101 85.9688 18.6801 85.9688 23.2101C85.9688 27.7101 89.0887 30.9201 93.4688 30.9201ZM88.0087 22.1001C88.3687 19.1901 90.1988 17.2101 93.1688 17.2101C96.0788 17.2101 98.1788 19.2201 98.1188 22.1001H88.0087Z" fill="white"/>
<path d="M110.552 15.4101C108.632 15.4101 106.832 16.3401 105.812 18.4401L105.542 15.7101H103.892V30.6801H105.842V22.6401C105.842 19.6101 107.432 17.2101 110.372 17.2101C112.652 17.2101 114.332 19.0701 114.332 22.0401V30.6801H116.282V21.9801C116.282 17.8101 114.002 15.4101 110.552 15.4101Z" fill="white"/>
<path d="M121.688 30.6801H128.588V28.9701H123.638V17.3901H127.868V15.6801H123.638V10.7301H121.688V15.6801H118.688V17.3601H121.688V30.6801Z" fill="white"/>
<path d="M131.072 15.6801V17.3901H140.852V20.0901C134.762 20.6301 130.412 22.2501 130.412 26.3601C130.412 28.9101 132.302 30.9201 135.662 30.9201C137.942 30.9201 140.072 29.5701 140.822 28.2501L141.152 30.7101H142.802V15.6801H131.072ZM135.752 29.2101C133.742 29.2101 132.362 27.9501 132.362 26.3601C132.362 23.2401 135.332 22.3101 140.882 21.7101V24.2301C140.882 26.9301 138.662 29.2101 135.752 29.2101Z" fill="white"/>
<path d="M152.002 30.6801H153.772V28.9701H152.152C149.932 28.9701 148.792 27.5901 148.792 25.0401V9.08008H146.842V25.0401C146.842 28.6401 148.702 30.6801 152.002 30.6801Z" fill="white"/>
<path d="M168.516 30.6801H174.606C181.086 30.6801 185.526 26.4501 185.526 19.8801C185.526 13.7001 181.056 9.68008 174.606 9.68008H168.516V30.6801ZM170.616 28.7301V11.6301H174.966C179.976 11.6301 183.336 14.9001 183.336 19.8801C183.336 25.2501 179.976 28.7301 174.966 28.7301H170.616Z" fill="white"/>
<path d="M196.713 30.9201C201.003 30.9201 203.943 28.5201 203.943 25.1001C203.943 22.3701 202.563 20.5101 197.883 19.0701L195.873 18.4401C192.243 17.3301 190.893 16.3401 190.893 14.6901C190.893 12.7401 192.663 11.5701 195.633 11.5701C198.873 11.5701 200.643 13.2801 201.543 15.0201L202.953 13.5201C202.113 11.6901 199.443 9.44008 195.663 9.44008C191.433 9.44008 188.793 11.5701 188.793 14.6601C188.793 17.3901 190.413 19.0101 195.273 20.5401L197.493 21.2601C200.253 22.1601 201.843 23.4201 201.843 25.1901C201.843 27.2001 200.043 28.7901 196.533 28.7901C193.473 28.7901 190.683 27.0801 189.393 24.3801L187.893 25.8501C189.363 28.8501 193.113 30.9201 196.713 30.9201Z" fill="white"/>
</svg>
