<svg width="536" height="257" viewBox="0 0 536 257" fill="none" xmlns="http://www.w3.org/2000/svg">
<rect x="0.5" y="104.5" width="279" height="128" rx="7.5" fill="#0FCD83" fill-opacity="0.1" stroke="#0FCD83"/>
<rect x="20.5" y="167.5" width="92" height="45" rx="7.5" fill="#0FCD83" fill-opacity="0.1" stroke="#0FCD83"/>
<rect x="20.5" y="124.5" width="92" height="32" rx="7.5" fill="#0FCD83" fill-opacity="0.1" stroke="#0FCD83"/>
<rect x="125.5" y="124.5" width="134" height="88" rx="7.5" fill="#5A45FB" fill-opacity="0.1" stroke="#5A45FB"/>
<path d="M32 186H30.81V178.96H32V182.01L34.82 178.96H36.27L33.18 182.33L36.33 186H34.83L32 182.76V186ZM37.2642 181.52C37.7309 181.027 38.3376 180.78 39.0842 180.78C39.8309 180.78 40.4342 181.027 40.8942 181.52C41.3609 182.013 41.5942 182.657 41.5942 183.45C41.5942 184.243 41.3609 184.887 40.8942 185.38C40.4342 185.873 39.8309 186.12 39.0842 186.12C38.3376 186.12 37.7309 185.873 37.2642 185.38C36.8042 184.887 36.5742 184.243 36.5742 183.45C36.5742 182.657 36.8042 182.013 37.2642 181.52ZM38.0942 184.65C38.3409 184.957 38.6709 185.11 39.0842 185.11C39.4976 185.11 39.8242 184.957 40.0642 184.65C40.3109 184.343 40.4342 183.943 40.4342 183.45C40.4342 182.957 40.3109 182.557 40.0642 182.25C39.8242 181.943 39.4976 181.79 39.0842 181.79C38.6709 181.79 38.3409 181.943 38.0942 182.25C37.8542 182.557 37.7342 182.957 37.7342 183.45C37.7342 183.943 37.8542 184.343 38.0942 184.65ZM42.7845 180.9H44.2245L45.8445 184.6L47.4645 180.9H48.8845V186H47.7845V182.51L46.2545 185.98H45.4145L43.8845 182.52V186H42.7845V180.9ZM53.355 182.62C53.355 182.333 53.2617 182.113 53.075 181.96C52.895 181.8 52.655 181.72 52.355 181.72C51.815 181.72 51.4783 181.917 51.345 182.31H50.265C50.345 181.87 50.5683 181.507 50.935 181.22C51.3083 180.927 51.795 180.78 52.395 180.78C53.0283 180.78 53.5317 180.943 53.905 181.27C54.285 181.597 54.475 182.053 54.475 182.64V186H53.415V185.42C53.0417 185.887 52.515 186.12 51.835 186.12C51.3283 186.12 50.905 185.977 50.565 185.69C50.2317 185.397 50.065 185.007 50.065 184.52C50.065 184.013 50.245 183.62 50.605 183.34C50.9717 183.053 51.475 182.91 52.115 182.91H53.355V182.62ZM52.085 185.19C52.4383 185.19 52.7383 185.09 52.985 184.89C53.2317 184.683 53.355 184.413 53.355 184.08V183.77H52.195C51.895 183.77 51.655 183.833 51.475 183.96C51.3017 184.08 51.215 184.253 51.215 184.48C51.215 184.707 51.295 184.883 51.455 185.01C51.615 185.13 51.825 185.19 52.085 185.19ZM57.0542 186H55.9142V180.9H57.0542V182.86H59.2442V180.9H60.3842V186H59.2442V183.87H57.0542V186ZM67.1238 185V187.28H66.0238V186H62.4238V187.28H61.3238V185H61.7338C62.0338 184.833 62.2238 184.303 62.3038 183.41L62.4938 180.9H66.3838V185H67.1238ZM63.3838 183.45C63.3238 184.237 63.1805 184.753 62.9538 185H65.2438V181.9H63.5038L63.3838 183.45ZM71.1843 182.62C71.1843 182.333 71.091 182.113 70.9043 181.96C70.7243 181.8 70.4843 181.72 70.1843 181.72C69.6443 181.72 69.3076 181.917 69.1743 182.31H68.0943C68.1743 181.87 68.3976 181.507 68.7643 181.22C69.1376 180.927 69.6243 180.78 70.2243 180.78C70.8576 180.78 71.361 180.943 71.7343 181.27C72.1143 181.597 72.3043 182.053 72.3043 182.64V186H71.2443V185.42C70.871 185.887 70.3443 186.12 69.6643 186.12C69.1576 186.12 68.7343 185.977 68.3943 185.69C68.061 185.397 67.8943 185.007 67.8943 184.52C67.8943 184.013 68.0743 183.62 68.4343 183.34C68.801 183.053 69.3043 182.91 69.9443 182.91H71.1843V182.62ZM69.9143 185.19C70.2676 185.19 70.5676 185.09 70.8143 184.89C71.061 184.683 71.1843 184.413 71.1843 184.08V183.77H70.0243C69.7243 183.77 69.4843 183.833 69.3043 183.96C69.131 184.08 69.0443 184.253 69.0443 184.48C69.0443 184.707 69.1243 184.883 69.2843 185.01C69.4443 185.13 69.6543 185.19 69.9143 185.19ZM33.37 193.78C34.0033 193.78 34.5367 194.017 34.97 194.49C35.41 194.963 35.63 195.617 35.63 196.45C35.63 197.283 35.4067 197.937 34.96 198.41C34.52 198.883 33.98 199.12 33.34 199.12C32.9867 199.12 32.6767 199.057 32.41 198.93C32.15 198.797 31.9567 198.63 31.83 198.43V200.91H30.69V193.9H31.79V194.56C32.11 194.04 32.6367 193.78 33.37 193.78ZM33.15 198.11C33.55 198.11 33.87 197.96 34.11 197.66C34.3567 197.353 34.48 196.95 34.48 196.45C34.48 195.957 34.3567 195.557 34.11 195.25C33.87 194.943 33.55 194.79 33.15 194.79C32.7433 194.79 32.4167 194.94 32.17 195.24C31.9233 195.533 31.8 195.93 31.8 196.43V196.47C31.8 196.97 31.9233 197.37 32.17 197.67C32.4167 197.963 32.7433 198.11 33.15 198.11ZM39.8054 195.62C39.8054 195.333 39.7121 195.113 39.5254 194.96C39.3454 194.8 39.1054 194.72 38.8054 194.72C38.2654 194.72 37.9287 194.917 37.7954 195.31H36.7154C36.7954 194.87 37.0187 194.507 37.3854 194.22C37.7587 193.927 38.2454 193.78 38.8454 193.78C39.4787 193.78 39.9821 193.943 40.3554 194.27C40.7354 194.597 40.9254 195.053 40.9254 195.64V199H39.8654V198.42C39.4921 198.887 38.9654 199.12 38.2854 199.12C37.7787 199.12 37.3554 198.977 37.0154 198.69C36.6821 198.397 36.5154 198.007 36.5154 197.52C36.5154 197.013 36.6954 196.62 37.0554 196.34C37.4221 196.053 37.9254 195.91 38.5654 195.91H39.8054V195.62ZM38.5354 198.19C38.8887 198.19 39.1887 198.09 39.4354 197.89C39.6821 197.683 39.8054 197.413 39.8054 197.08V196.77H38.6454C38.3454 196.77 38.1054 196.833 37.9254 196.96C37.7521 197.08 37.6654 197.253 37.6654 197.48C37.6654 197.707 37.7454 197.883 37.9054 198.01C38.0654 198.13 38.2754 198.19 38.5354 198.19ZM42.1246 195.33C42.1779 194.843 42.4013 194.463 42.7946 194.19C43.1946 193.917 43.6746 193.78 44.2346 193.78C44.7813 193.78 45.2313 193.913 45.5846 194.18C45.9379 194.447 46.1146 194.8 46.1146 195.24C46.1146 195.773 45.8679 196.143 45.3746 196.35C45.6213 196.403 45.8379 196.53 46.0246 196.73C46.2179 196.923 46.3146 197.19 46.3146 197.53C46.3146 198.003 46.1179 198.387 45.7246 198.68C45.3379 198.973 44.8346 199.12 44.2146 199.12C43.6146 199.12 43.1179 198.977 42.7246 198.69C42.3313 198.403 42.1013 198.007 42.0346 197.5H43.1446C43.1979 197.72 43.3179 197.89 43.5046 198.01C43.6979 198.123 43.9346 198.18 44.2146 198.18C44.5079 198.18 44.7413 198.12 44.9146 198C45.0879 197.873 45.1746 197.7 45.1746 197.48C45.1746 197.067 44.8579 196.86 44.2246 196.86H43.4746V195.96H44.1646C44.4313 195.96 44.6346 195.907 44.7746 195.8C44.9213 195.687 44.9946 195.53 44.9946 195.33C44.9946 195.137 44.9179 194.987 44.7646 194.88C44.6179 194.773 44.4213 194.72 44.1746 194.72C43.9146 194.72 43.7013 194.777 43.5346 194.89C43.3679 195.003 43.2613 195.15 43.2146 195.33H42.1246ZM50.1934 193.78C50.8268 193.78 51.3601 194.017 51.7934 194.49C52.2334 194.963 52.4534 195.617 52.4534 196.45C52.4534 197.283 52.2301 197.937 51.7834 198.41C51.3434 198.883 50.8034 199.12 50.1634 199.12C49.8101 199.12 49.5001 199.057 49.2334 198.93C48.9734 198.797 48.7801 198.63 48.6534 198.43V200.91H47.5134V193.9H48.6134V194.56C48.9334 194.04 49.4601 193.78 50.1934 193.78ZM49.9734 198.11C50.3734 198.11 50.6934 197.96 50.9334 197.66C51.1801 197.353 51.3034 196.95 51.3034 196.45C51.3034 195.957 51.1801 195.557 50.9334 195.25C50.6934 194.943 50.3734 194.79 49.9734 194.79C49.5668 194.79 49.2401 194.94 48.9934 195.24C48.7468 195.533 48.6234 195.93 48.6234 196.43V196.47C48.6234 196.97 48.7468 197.37 48.9934 197.67C49.2401 197.963 49.5668 198.11 49.9734 198.11ZM56.6288 195.62C56.6288 195.333 56.5355 195.113 56.3488 194.96C56.1688 194.8 55.9288 194.72 55.6288 194.72C55.0888 194.72 54.7522 194.917 54.6188 195.31H53.5388C53.6188 194.87 53.8422 194.507 54.2088 194.22C54.5822 193.927 55.0688 193.78 55.6688 193.78C56.3022 193.78 56.8055 193.943 57.1788 194.27C57.5588 194.597 57.7488 195.053 57.7488 195.64V199H56.6888V198.42C56.3155 198.887 55.7888 199.12 55.1088 199.12C54.6022 199.12 54.1788 198.977 53.8388 198.69C53.5055 198.397 53.3388 198.007 53.3388 197.52C53.3388 197.013 53.5188 196.62 53.8788 196.34C54.2455 196.053 54.7488 195.91 55.3888 195.91H56.6288V195.62ZM55.3588 198.19C55.7122 198.19 56.0122 198.09 56.2588 197.89C56.5055 197.683 56.6288 197.413 56.6288 197.08V196.77H55.4688C55.1688 196.77 54.9288 196.833 54.7488 196.96C54.5755 197.08 54.4888 197.253 54.4888 197.48C54.4888 197.707 54.5688 197.883 54.7288 198.01C54.8888 198.13 55.0988 198.19 55.3588 198.19ZM61.798 193.94C62.4714 193.94 63.018 194.17 63.438 194.63C63.8647 195.09 64.078 195.713 64.078 196.5C64.078 197.24 63.8514 197.863 63.398 198.37C62.9514 198.87 62.358 199.12 61.618 199.12C60.7914 199.12 60.1447 198.843 59.678 198.29C59.2114 197.73 58.978 196.953 58.978 195.96C58.978 194.74 59.1714 193.817 59.558 193.19C59.9447 192.557 60.5947 192.157 61.508 191.99L63.578 191.61V192.65L61.678 192.96C61.1514 193.053 60.7647 193.243 60.518 193.53C60.2714 193.81 60.1214 194.223 60.068 194.77C60.448 194.217 61.0247 193.94 61.798 193.94ZM61.558 198.13C61.978 198.13 62.308 197.98 62.548 197.68C62.7947 197.373 62.918 196.98 62.918 196.5C62.918 196.033 62.7947 195.653 62.548 195.36C62.308 195.06 61.9814 194.91 61.568 194.91C61.1547 194.91 60.818 195.053 60.558 195.34C60.298 195.62 60.168 196 60.168 196.48C60.168 196.973 60.2914 197.373 60.538 197.68C60.7914 197.98 61.1314 198.13 61.558 198.13ZM65.6646 194.52C66.1313 194.027 66.7379 193.78 67.4846 193.78C68.2313 193.78 68.8346 194.027 69.2946 194.52C69.7613 195.013 69.9946 195.657 69.9946 196.45C69.9946 197.243 69.7613 197.887 69.2946 198.38C68.8346 198.873 68.2313 199.12 67.4846 199.12C66.7379 199.12 66.1313 198.873 65.6646 198.38C65.2046 197.887 64.9746 197.243 64.9746 196.45C64.9746 195.657 65.2046 195.013 65.6646 194.52ZM66.4946 197.65C66.7413 197.957 67.0713 198.11 67.4846 198.11C67.8979 198.11 68.2246 197.957 68.4646 197.65C68.7113 197.343 68.8346 196.943 68.8346 196.45C68.8346 195.957 68.7113 195.557 68.4646 195.25C68.2246 194.943 67.8979 194.79 67.4846 194.79C67.0713 194.79 66.7413 194.943 66.4946 195.25C66.2546 195.557 66.1346 195.957 66.1346 196.45C66.1346 196.943 66.2546 197.343 66.4946 197.65ZM70.5896 194.9V193.9H74.9896V194.9H73.3596V199H72.2196V194.9H70.5896ZM77.2101 199H76.0701V193.9H77.2101V196.02L79.1701 193.9H80.5201L78.3201 196.29L80.5501 199H79.1701L77.2101 196.62V199ZM85.9735 193.9V199H84.8535V195.61L82.5435 199H81.4435V193.9H82.5635V197.3L84.8735 193.9H85.9735Z" fill="white"/>
<path d="M137 186H135.81V178.96H137V182.01L139.82 178.96H141.27L138.18 182.33L141.33 186H139.83L137 182.76V186ZM142.264 181.52C142.731 181.027 143.338 180.78 144.084 180.78C144.831 180.78 145.434 181.027 145.894 181.52C146.361 182.013 146.594 182.657 146.594 183.45C146.594 184.243 146.361 184.887 145.894 185.38C145.434 185.873 144.831 186.12 144.084 186.12C143.338 186.12 142.731 185.873 142.264 185.38C141.804 184.887 141.574 184.243 141.574 183.45C141.574 182.657 141.804 182.013 142.264 181.52ZM143.094 184.65C143.341 184.957 143.671 185.11 144.084 185.11C144.498 185.11 144.824 184.957 145.064 184.65C145.311 184.343 145.434 183.943 145.434 183.45C145.434 182.957 145.311 182.557 145.064 182.25C144.824 181.943 144.498 181.79 144.084 181.79C143.671 181.79 143.341 181.943 143.094 182.25C142.854 182.557 142.734 182.957 142.734 183.45C142.734 183.943 142.854 184.343 143.094 184.65ZM147.785 180.9H149.225L150.845 184.6L152.465 180.9H153.885V186H152.785V182.51L151.255 185.98H150.415L148.885 182.52V186H147.785V180.9ZM158.355 182.62C158.355 182.333 158.262 182.113 158.075 181.96C157.895 181.8 157.655 181.72 157.355 181.72C156.815 181.72 156.478 181.917 156.345 182.31H155.265C155.345 181.87 155.568 181.507 155.935 181.22C156.308 180.927 156.795 180.78 157.395 180.78C158.028 180.78 158.532 180.943 158.905 181.27C159.285 181.597 159.475 182.053 159.475 182.64V186H158.415V185.42C158.042 185.887 157.515 186.12 156.835 186.12C156.328 186.12 155.905 185.977 155.565 185.69C155.232 185.397 155.065 185.007 155.065 184.52C155.065 184.013 155.245 183.62 155.605 183.34C155.972 183.053 156.475 182.91 157.115 182.91H158.355V182.62ZM157.085 185.19C157.438 185.19 157.738 185.09 157.985 184.89C158.232 184.683 158.355 184.413 158.355 184.08V183.77H157.195C156.895 183.77 156.655 183.833 156.475 183.96C156.302 184.08 156.215 184.253 156.215 184.48C156.215 184.707 156.295 184.883 156.455 185.01C156.615 185.13 156.825 185.19 157.085 185.19ZM162.054 186H160.914V180.9H162.054V182.86H164.244V180.9H165.384V186H164.244V183.87H162.054V186ZM172.124 185V187.28H171.024V186H167.424V187.28H166.324V185H166.734C167.034 184.833 167.224 184.303 167.304 183.41L167.494 180.9H171.384V185H172.124ZM168.384 183.45C168.324 184.237 168.18 184.753 167.954 185H170.244V181.9H168.504L168.384 183.45ZM176.184 182.62C176.184 182.333 176.091 182.113 175.904 181.96C175.724 181.8 175.484 181.72 175.184 181.72C174.644 181.72 174.308 181.917 174.174 182.31H173.094C173.174 181.87 173.398 181.507 173.764 181.22C174.138 180.927 174.624 180.78 175.224 180.78C175.858 180.78 176.361 180.943 176.734 181.27C177.114 181.597 177.304 182.053 177.304 182.64V186H176.244V185.42C175.871 185.887 175.344 186.12 174.664 186.12C174.158 186.12 173.734 185.977 173.394 185.69C173.061 185.397 172.894 185.007 172.894 184.52C172.894 184.013 173.074 183.62 173.434 183.34C173.801 183.053 174.304 182.91 174.944 182.91H176.184V182.62ZM174.914 185.19C175.268 185.19 175.568 185.09 175.814 184.89C176.061 184.683 176.184 184.413 176.184 184.08V183.77H175.024C174.724 183.77 174.484 183.833 174.304 183.96C174.131 184.08 174.044 184.253 174.044 184.48C174.044 184.707 174.124 184.883 174.284 185.01C174.444 185.13 174.654 185.19 174.914 185.19ZM140.95 198V200.28H139.85V199H136.25V200.28H135.15V198H135.56C135.86 197.833 136.05 197.303 136.13 196.41L136.32 193.9H140.21V198H140.95ZM137.21 196.45C137.15 197.237 137.007 197.753 136.78 198H139.07V194.9H137.33L137.21 196.45ZM146.55 193.9V199H145.43V195.61L143.12 199H142.02V193.9H143.14V197.3L145.45 193.9H146.55ZM147.789 195.33C147.842 194.843 148.065 194.463 148.459 194.19C148.859 193.917 149.339 193.78 149.899 193.78C150.445 193.78 150.895 193.913 151.249 194.18C151.602 194.447 151.779 194.8 151.779 195.24C151.779 195.773 151.532 196.143 151.039 196.35C151.285 196.403 151.502 196.53 151.689 196.73C151.882 196.923 151.979 197.19 151.979 197.53C151.979 198.003 151.782 198.387 151.389 198.68C151.002 198.973 150.499 199.12 149.879 199.12C149.279 199.12 148.782 198.977 148.389 198.69C147.995 198.403 147.765 198.007 147.699 197.5H148.809C148.862 197.72 148.982 197.89 149.169 198.01C149.362 198.123 149.599 198.18 149.879 198.18C150.172 198.18 150.405 198.12 150.579 198C150.752 197.873 150.839 197.7 150.839 197.48C150.839 197.067 150.522 196.86 149.889 196.86H149.139V195.96H149.829C150.095 195.96 150.299 195.907 150.439 195.8C150.585 195.687 150.659 195.53 150.659 195.33C150.659 195.137 150.582 194.987 150.429 194.88C150.282 194.773 150.085 194.72 149.839 194.72C149.579 194.72 149.365 194.777 149.199 194.89C149.032 195.003 148.925 195.15 148.879 195.33H147.789ZM156.167 195.62C156.167 195.333 156.074 195.113 155.887 194.96C155.707 194.8 155.467 194.72 155.167 194.72C154.627 194.72 154.291 194.917 154.157 195.31H153.077C153.157 194.87 153.381 194.507 153.747 194.22C154.121 193.927 154.607 193.78 155.207 193.78C155.841 193.78 156.344 193.943 156.717 194.27C157.097 194.597 157.287 195.053 157.287 195.64V199H156.227V198.42C155.854 198.887 155.327 199.12 154.647 199.12C154.141 199.12 153.717 198.977 153.377 198.69C153.044 198.397 152.877 198.007 152.877 197.52C152.877 197.013 153.057 196.62 153.417 196.34C153.784 196.053 154.287 195.91 154.927 195.91H156.167V195.62ZM154.897 198.19C155.251 198.19 155.551 198.09 155.797 197.89C156.044 197.683 156.167 197.413 156.167 197.08V196.77H155.007C154.707 196.77 154.467 196.833 154.287 196.96C154.114 197.08 154.027 197.253 154.027 197.48C154.027 197.707 154.107 197.883 154.267 198.01C154.427 198.13 154.637 198.19 154.897 198.19ZM163.257 193.9V199H162.137V195.61L159.827 199H158.727V193.9H159.847V197.3L162.157 193.9H163.257ZM160.227 191.59C160.227 191.83 160.293 192.03 160.427 192.19C160.56 192.35 160.75 192.43 160.997 192.43C161.243 192.43 161.433 192.35 161.567 192.19C161.7 192.03 161.767 191.83 161.767 191.59H162.687C162.673 192.09 162.513 192.49 162.207 192.79C161.907 193.09 161.503 193.24 160.997 193.24C160.49 193.24 160.083 193.09 159.777 192.79C159.477 192.49 159.32 192.09 159.307 191.59H160.227ZM165.875 199H164.735V193.9H165.875V195.86H168.065V193.9H169.205V199H168.065V196.87H165.875V199ZM175.155 196.78H171.565V196.8C171.565 197.193 171.691 197.52 171.945 197.78C172.198 198.04 172.528 198.17 172.935 198.17C173.215 198.17 173.445 198.113 173.625 198C173.811 197.88 173.928 197.753 173.975 197.62H175.095C175.015 198.007 174.788 198.353 174.415 198.66C174.048 198.967 173.548 199.12 172.915 199.12C172.155 199.12 171.545 198.883 171.085 198.41C170.625 197.93 170.395 197.28 170.395 196.46C170.395 195.64 170.621 194.99 171.075 194.51C171.528 194.023 172.118 193.78 172.845 193.78C173.545 193.78 174.105 194.01 174.525 194.47C174.945 194.93 175.155 195.543 175.155 196.31V196.78ZM172.835 194.73C172.475 194.73 172.181 194.837 171.955 195.05C171.735 195.263 171.608 195.553 171.575 195.92H174.015C174.001 195.547 173.888 195.257 173.675 195.05C173.468 194.837 173.188 194.73 172.835 194.73ZM179.021 193.78C179.655 193.78 180.188 194.017 180.621 194.49C181.061 194.963 181.281 195.617 181.281 196.45C181.281 197.283 181.058 197.937 180.611 198.41C180.171 198.883 179.631 199.12 178.991 199.12C178.638 199.12 178.328 199.057 178.061 198.93C177.801 198.797 177.608 198.63 177.481 198.43V200.91H176.341V193.9H177.441V194.56C177.761 194.04 178.288 193.78 179.021 193.78ZM178.801 198.11C179.201 198.11 179.521 197.96 179.761 197.66C180.008 197.353 180.131 196.95 180.131 196.45C180.131 195.957 180.008 195.557 179.761 195.25C179.521 194.943 179.201 194.79 178.801 194.79C178.395 194.79 178.068 194.94 177.821 195.24C177.575 195.533 177.451 195.93 177.451 196.43V196.47C177.451 196.97 177.575 197.37 177.821 197.67C178.068 197.963 178.395 198.11 178.801 198.11ZM182.867 194.52C183.333 194.027 183.94 193.78 184.687 193.78C185.433 193.78 186.037 194.027 186.497 194.52C186.963 195.013 187.197 195.657 187.197 196.45C187.197 197.243 186.963 197.887 186.497 198.38C186.037 198.873 185.433 199.12 184.687 199.12C183.94 199.12 183.333 198.873 182.867 198.38C182.407 197.887 182.177 197.243 182.177 196.45C182.177 195.657 182.407 195.013 182.867 194.52ZM183.697 197.65C183.943 197.957 184.273 198.11 184.687 198.11C185.1 198.11 185.427 197.957 185.667 197.65C185.913 197.343 186.037 196.943 186.037 196.45C186.037 195.957 185.913 195.557 185.667 195.25C185.427 194.943 185.1 194.79 184.687 194.79C184.273 194.79 183.943 194.943 183.697 195.25C183.457 195.557 183.337 195.957 183.337 196.45C183.337 196.943 183.457 197.343 183.697 197.65ZM188.387 199V193.9H190.677C191.224 193.9 191.64 194.023 191.927 194.27C192.214 194.517 192.357 194.833 192.357 195.22C192.357 195.5 192.287 195.733 192.147 195.92C192.014 196.1 191.847 196.23 191.647 196.31C191.907 196.383 192.124 196.527 192.297 196.74C192.477 196.953 192.567 197.223 192.567 197.55C192.567 197.977 192.407 198.327 192.087 198.6C191.774 198.867 191.337 199 190.777 199H188.387ZM190.637 196.82H189.507V198.12H190.637C190.89 198.12 191.084 198.063 191.217 197.95C191.357 197.83 191.427 197.667 191.427 197.46C191.427 197.033 191.164 196.82 190.637 196.82ZM190.537 194.78H189.507V195.96H190.537C190.757 195.96 190.927 195.907 191.047 195.8C191.174 195.693 191.237 195.547 191.237 195.36C191.237 194.973 191.004 194.78 190.537 194.78Z" fill="white"/>
<path d="M137.78 135.96H139.02L141.64 143H140.39L139.78 141.33H137L136.42 143H135.17L137.78 135.96ZM138.39 137.38L137.37 140.3H139.42L138.39 137.38ZM145.267 137.78C145.9 137.78 146.434 138.017 146.867 138.49C147.307 138.963 147.527 139.617 147.527 140.45C147.527 141.283 147.304 141.937 146.857 142.41C146.417 142.883 145.877 143.12 145.237 143.12C144.884 143.12 144.574 143.057 144.307 142.93C144.047 142.797 143.854 142.63 143.727 142.43V144.91H142.587V137.9H143.687V138.56C144.007 138.04 144.534 137.78 145.267 137.78ZM145.047 142.11C145.447 142.11 145.767 141.96 146.007 141.66C146.254 141.353 146.377 140.95 146.377 140.45C146.377 139.957 146.254 139.557 146.007 139.25C145.767 138.943 145.447 138.79 145.047 138.79C144.64 138.79 144.314 138.94 144.067 139.24C143.82 139.533 143.697 139.93 143.697 140.43V140.47C143.697 140.97 143.82 141.37 144.067 141.67C144.314 141.963 144.64 142.11 145.047 142.11ZM148.127 138.9V137.9H152.527V138.9H150.897V143H149.757V138.9H148.127ZM161.145 142V144.28H160.045V143H156.445V144.28H155.345V142H155.755C156.055 141.833 156.245 141.303 156.325 140.41L156.515 137.9H160.405V142H161.145ZM157.405 140.45C157.345 141.237 157.202 141.753 156.975 142H159.265V138.9H157.525L157.405 140.45ZM166.745 137.9V143H165.625V139.61L163.315 143H162.215V137.9H163.335V141.3L165.645 137.9H166.745ZM170.904 137.78C171.537 137.78 172.07 138.017 172.504 138.49C172.944 138.963 173.164 139.617 173.164 140.45C173.164 141.283 172.94 141.937 172.494 142.41C172.054 142.883 171.514 143.12 170.874 143.12C170.52 143.12 170.21 143.057 169.944 142.93C169.684 142.797 169.49 142.63 169.364 142.43V144.91H168.224V137.9H169.324V138.56C169.644 138.04 170.17 137.78 170.904 137.78ZM170.684 142.11C171.084 142.11 171.404 141.96 171.644 141.66C171.89 141.353 172.014 140.95 172.014 140.45C172.014 139.957 171.89 139.557 171.644 139.25C171.404 138.943 171.084 138.79 170.684 138.79C170.277 138.79 169.95 138.94 169.704 139.24C169.457 139.533 169.334 139.93 169.334 140.43V140.47C169.334 140.97 169.457 141.37 169.704 141.67C169.95 141.963 170.277 142.11 170.684 142.11ZM178.819 140.78H175.229V140.8C175.229 141.193 175.356 141.52 175.609 141.78C175.862 142.04 176.192 142.17 176.599 142.17C176.879 142.17 177.109 142.113 177.289 142C177.476 141.88 177.592 141.753 177.639 141.62H178.759C178.679 142.007 178.452 142.353 178.079 142.66C177.712 142.967 177.212 143.12 176.579 143.12C175.819 143.12 175.209 142.883 174.749 142.41C174.289 141.93 174.059 141.28 174.059 140.46C174.059 139.64 174.286 138.99 174.739 138.51C175.192 138.023 175.782 137.78 176.509 137.78C177.209 137.78 177.769 138.01 178.189 138.47C178.609 138.93 178.819 139.543 178.819 140.31V140.78ZM176.499 138.73C176.139 138.73 175.846 138.837 175.619 139.05C175.399 139.263 175.272 139.553 175.239 139.92H177.679C177.666 139.547 177.552 139.257 177.339 139.05C177.132 138.837 176.852 138.73 176.499 138.73ZM181.146 143H180.006V137.9H181.146V140.02L183.106 137.9H184.456L182.256 140.29L184.486 143H183.106L181.146 140.62V143ZM184.979 138.9V137.9H189.379V138.9H187.749V143H186.609V138.9H184.979ZM190.664 138.52C191.131 138.027 191.738 137.78 192.484 137.78C193.231 137.78 193.834 138.027 194.294 138.52C194.761 139.013 194.994 139.657 194.994 140.45C194.994 141.243 194.761 141.887 194.294 142.38C193.834 142.873 193.231 143.12 192.484 143.12C191.738 143.12 191.131 142.873 190.664 142.38C190.204 141.887 189.974 141.243 189.974 140.45C189.974 139.657 190.204 139.013 190.664 138.52ZM191.494 141.65C191.741 141.957 192.071 142.11 192.484 142.11C192.898 142.11 193.224 141.957 193.464 141.65C193.711 141.343 193.834 140.943 193.834 140.45C193.834 139.957 193.711 139.557 193.464 139.25C193.224 138.943 192.898 138.79 192.484 138.79C192.071 138.79 191.741 138.943 191.494 139.25C191.254 139.557 191.134 139.957 191.134 140.45C191.134 140.943 191.254 141.343 191.494 141.65ZM198.865 137.78C199.498 137.78 200.031 138.017 200.465 138.49C200.905 138.963 201.125 139.617 201.125 140.45C201.125 141.283 200.901 141.937 200.455 142.41C200.015 142.883 199.475 143.12 198.835 143.12C198.481 143.12 198.171 143.057 197.905 142.93C197.645 142.797 197.451 142.63 197.325 142.43V144.91H196.185V137.9H197.285V138.56C197.605 138.04 198.131 137.78 198.865 137.78ZM198.645 142.11C199.045 142.11 199.365 141.96 199.605 141.66C199.851 141.353 199.975 140.95 199.975 140.45C199.975 139.957 199.851 139.557 199.605 139.25C199.365 138.943 199.045 138.79 198.645 138.79C198.238 138.79 197.911 138.94 197.665 139.24C197.418 139.533 197.295 139.93 197.295 140.43V140.47C197.295 140.97 197.418 141.37 197.665 141.67C197.911 141.963 198.238 142.11 198.645 142.11ZM204.588 143V137.9H206.878C207.424 137.9 207.841 138.023 208.128 138.27C208.414 138.517 208.558 138.833 208.558 139.22C208.558 139.5 208.488 139.733 208.348 139.92C208.214 140.1 208.048 140.23 207.848 140.31C208.108 140.383 208.324 140.527 208.498 140.74C208.678 140.953 208.768 141.223 208.768 141.55C208.768 141.977 208.608 142.327 208.288 142.6C207.974 142.867 207.538 143 206.978 143H204.588ZM206.838 140.82H205.708V142.12H206.838C207.091 142.12 207.284 142.063 207.418 141.95C207.558 141.83 207.628 141.667 207.628 141.46C207.628 141.033 207.364 140.82 206.838 140.82ZM206.738 138.78H205.708V139.96H206.738C206.958 139.96 207.128 139.907 207.248 139.8C207.374 139.693 207.438 139.547 207.438 139.36C207.438 138.973 207.204 138.78 206.738 138.78ZM214.431 140.78H210.841V140.8C210.841 141.193 210.968 141.52 211.221 141.78C211.474 142.04 211.804 142.17 212.211 142.17C212.491 142.17 212.721 142.113 212.901 142C213.088 141.88 213.204 141.753 213.251 141.62H214.371C214.291 142.007 214.064 142.353 213.691 142.66C213.324 142.967 212.824 143.12 212.191 143.12C211.431 143.12 210.821 142.883 210.361 142.41C209.901 141.93 209.671 141.28 209.671 140.46C209.671 139.64 209.898 138.99 210.351 138.51C210.804 138.023 211.394 137.78 212.121 137.78C212.821 137.78 213.381 138.01 213.801 138.47C214.221 138.93 214.431 139.543 214.431 140.31V140.78ZM212.111 138.73C211.751 138.73 211.458 138.837 211.231 139.05C211.011 139.263 210.884 139.553 210.851 139.92H213.291C213.278 139.547 213.164 139.257 212.951 139.05C212.744 138.837 212.464 138.73 212.111 138.73ZM220.848 142V144.28H219.748V143H216.148V144.28H215.048V142H215.458C215.758 141.833 215.948 141.303 216.028 140.41L216.218 137.9H220.108V142H220.848ZM217.108 140.45C217.048 141.237 216.905 141.753 216.678 142H218.968V138.9H217.228L217.108 140.45ZM226.379 140.78H222.789V140.8C222.789 141.193 222.916 141.52 223.169 141.78C223.422 142.04 223.752 142.17 224.159 142.17C224.439 142.17 224.669 142.113 224.849 142C225.036 141.88 225.152 141.753 225.199 141.62H226.319C226.239 142.007 226.012 142.353 225.639 142.66C225.272 142.967 224.772 143.12 224.139 143.12C223.379 143.12 222.769 142.883 222.309 142.41C221.849 141.93 221.619 141.28 221.619 140.46C221.619 139.64 221.846 138.99 222.299 138.51C222.752 138.023 223.342 137.78 224.069 137.78C224.769 137.78 225.329 138.01 225.749 138.47C226.169 138.93 226.379 139.543 226.379 140.31V140.78ZM224.059 138.73C223.699 138.73 223.406 138.837 223.179 139.05C222.959 139.263 222.832 139.553 222.799 139.92H225.239C225.226 139.547 225.112 139.257 224.899 139.05C224.692 138.837 224.412 138.73 224.059 138.73ZM227 138.9V137.9H231.4V138.9H229.77V143H228.63V138.9H227ZM136.83 156H135.69V150.9H136.83V153.02L138.79 150.9H140.14L137.94 153.29L140.17 156H138.79L136.83 153.62V156ZM141.219 151.52C141.686 151.027 142.293 150.78 143.039 150.78C143.786 150.78 144.389 151.027 144.849 151.52C145.316 152.013 145.549 152.657 145.549 153.45C145.549 154.243 145.316 154.887 144.849 155.38C144.389 155.873 143.786 156.12 143.039 156.12C142.293 156.12 141.686 155.873 141.219 155.38C140.759 154.887 140.529 154.243 140.529 153.45C140.529 152.657 140.759 152.013 141.219 151.52ZM142.049 154.65C142.296 154.957 142.626 155.11 143.039 155.11C143.453 155.11 143.779 154.957 144.019 154.65C144.266 154.343 144.389 153.943 144.389 153.45C144.389 152.957 144.266 152.557 144.019 152.25C143.779 151.943 143.453 151.79 143.039 151.79C142.626 151.79 142.296 151.943 142.049 152.25C141.809 152.557 141.689 152.957 141.689 153.45C141.689 153.943 141.809 154.343 142.049 154.65ZM147.88 156H146.74V150.9H147.88V152.86H150.07V150.9H151.21V156H150.07V153.87H147.88V156ZM157.839 155V157.28H156.749V156H152.689V150.9H153.829V155H155.969V150.9H157.109V155H157.839ZM163.372 153.78H159.782V153.8C159.782 154.193 159.909 154.52 160.162 154.78C160.416 155.04 160.746 155.17 161.152 155.17C161.432 155.17 161.662 155.113 161.842 155C162.029 154.88 162.146 154.753 162.192 154.62H163.313C163.232 155.007 163.006 155.353 162.632 155.66C162.266 155.967 161.766 156.12 161.132 156.12C160.372 156.12 159.762 155.883 159.302 155.41C158.842 154.93 158.612 154.28 158.612 153.46C158.612 152.64 158.839 151.99 159.292 151.51C159.746 151.023 160.336 150.78 161.062 150.78C161.762 150.78 162.322 151.01 162.742 151.47C163.162 151.93 163.372 152.543 163.372 153.31V153.78ZM161.052 151.73C160.692 151.73 160.399 151.837 160.172 152.05C159.952 152.263 159.826 152.553 159.792 152.92H162.232C162.219 152.547 162.106 152.257 161.892 152.05C161.686 151.837 161.406 151.73 161.052 151.73ZM164.559 150.9H168.999V156H167.859V151.9H165.699V156H164.559V150.9ZM170.079 151.9V150.9H174.479V151.9H172.849V156H171.709V151.9H170.079ZM178.88 150.9H180.11L177.36 157.91H176.14L176.93 155.91L174.97 150.9H176.2L177.54 154.55L178.88 150.9ZM183.894 152.62C183.894 152.333 183.801 152.113 183.614 151.96C183.434 151.8 183.194 151.72 182.894 151.72C182.354 151.72 182.017 151.917 181.884 152.31H180.804C180.884 151.87 181.107 151.507 181.474 151.22C181.847 150.927 182.334 150.78 182.934 150.78C183.567 150.78 184.071 150.943 184.444 151.27C184.824 151.597 185.014 152.053 185.014 152.64V156H183.954V155.42C183.581 155.887 183.054 156.12 182.374 156.12C181.867 156.12 181.444 155.977 181.104 155.69C180.771 155.397 180.604 155.007 180.604 154.52C180.604 154.013 180.784 153.62 181.144 153.34C181.511 153.053 182.014 152.91 182.654 152.91H183.894V152.62ZM182.624 155.19C182.977 155.19 183.277 155.09 183.524 154.89C183.771 154.683 183.894 154.413 183.894 154.08V153.77H182.734C182.434 153.77 182.194 153.833 182.014 153.96C181.841 154.08 181.754 154.253 181.754 154.48C181.754 154.707 181.834 154.883 181.994 155.01C182.154 155.13 182.364 155.19 182.624 155.19ZM185.913 156.02V155.02H186.073C186.353 155.02 186.55 154.943 186.663 154.79C186.783 154.63 186.86 154.353 186.893 153.96L187.143 150.9H190.893V156H189.753V151.9H188.143L187.973 154.04C187.92 154.74 187.753 155.247 187.473 155.56C187.2 155.867 186.783 156.02 186.223 156.02H185.913ZM193.513 150.9V152.45H194.533C195.1 152.45 195.553 152.617 195.893 152.95C196.233 153.277 196.403 153.697 196.403 154.21C196.403 154.73 196.23 155.16 195.883 155.5C195.543 155.833 195.093 156 194.533 156H192.383V150.9H193.513ZM194.393 153.41H193.513V155.05H194.393C194.667 155.05 194.88 154.97 195.033 154.81C195.193 154.65 195.273 154.45 195.273 154.21C195.273 153.97 195.193 153.777 195.033 153.63C194.88 153.483 194.667 153.41 194.393 153.41ZM198.701 156H197.561V150.9H198.701V152.86H200.891V150.9H202.031V156H200.891V153.87H198.701V156ZM203.911 151.52C204.378 151.027 204.984 150.78 205.731 150.78C206.478 150.78 207.081 151.027 207.541 151.52C208.008 152.013 208.241 152.657 208.241 153.45C208.241 154.243 208.008 154.887 207.541 155.38C207.081 155.873 206.478 156.12 205.731 156.12C204.984 156.12 204.378 155.873 203.911 155.38C203.451 154.887 203.221 154.243 203.221 153.45C203.221 152.657 203.451 152.013 203.911 151.52ZM204.741 154.65C204.988 154.957 205.318 155.11 205.731 155.11C206.144 155.11 206.471 154.957 206.711 154.65C206.958 154.343 207.081 153.943 207.081 153.45C207.081 152.957 206.958 152.557 206.711 152.25C206.471 151.943 206.144 151.79 205.731 151.79C205.318 151.79 204.988 151.943 204.741 152.25C204.501 152.557 204.381 152.957 204.381 153.45C204.381 153.943 204.501 154.343 204.741 154.65ZM213.901 153.78H210.311V153.8C210.311 154.193 210.438 154.52 210.691 154.78C210.945 155.04 211.275 155.17 211.681 155.17C211.961 155.17 212.191 155.113 212.371 155C212.558 154.88 212.675 154.753 212.721 154.62H213.841C213.761 155.007 213.535 155.353 213.161 155.66C212.795 155.967 212.295 156.12 211.661 156.12C210.901 156.12 210.291 155.883 209.831 155.41C209.371 154.93 209.141 154.28 209.141 153.46C209.141 152.64 209.368 151.99 209.821 151.51C210.275 151.023 210.865 150.78 211.591 150.78C212.291 150.78 212.851 151.01 213.271 151.47C213.691 151.93 213.901 152.543 213.901 153.31V153.78ZM211.581 151.73C211.221 151.73 210.928 151.837 210.701 152.05C210.481 152.263 210.355 152.553 210.321 152.92H212.761C212.748 152.547 212.635 152.257 212.421 152.05C212.215 151.837 211.935 151.73 211.581 151.73ZM220.046 150.78C220.679 150.78 221.212 151.017 221.646 151.49C222.086 151.963 222.306 152.617 222.306 153.45C222.306 154.283 222.082 154.937 221.636 155.41C221.196 155.883 220.656 156.12 220.016 156.12C219.662 156.12 219.352 156.057 219.086 155.93C218.826 155.797 218.632 155.63 218.506 155.43V157.91H217.366V150.9H218.466V151.56C218.786 151.04 219.312 150.78 220.046 150.78ZM219.826 155.11C220.226 155.11 220.546 154.96 220.786 154.66C221.032 154.353 221.156 153.95 221.156 153.45C221.156 152.957 221.032 152.557 220.786 152.25C220.546 151.943 220.226 151.79 219.826 151.79C219.419 151.79 219.092 151.94 218.846 152.24C218.599 152.533 218.476 152.93 218.476 153.43V153.47C218.476 153.97 218.599 154.37 218.846 154.67C219.092 154.963 219.419 155.11 219.826 155.11ZM227.961 153.78H224.371V153.8C224.371 154.193 224.498 154.52 224.751 154.78C225.005 155.04 225.335 155.17 225.741 155.17C226.021 155.17 226.251 155.113 226.431 155C226.618 154.88 226.735 154.753 226.781 154.62H227.901C227.821 155.007 227.595 155.353 227.221 155.66C226.855 155.967 226.355 156.12 225.721 156.12C224.961 156.12 224.351 155.883 223.891 155.41C223.431 154.93 223.201 154.28 223.201 153.46C223.201 152.64 223.428 151.99 223.881 151.51C224.335 151.023 224.925 150.78 225.651 150.78C226.351 150.78 226.911 151.01 227.331 151.47C227.751 151.93 227.961 152.543 227.961 153.31V153.78ZM225.641 151.73C225.281 151.73 224.988 151.837 224.761 152.05C224.541 152.263 224.415 152.553 224.381 152.92H226.821C226.808 152.547 226.695 152.257 226.481 152.05C226.275 151.837 225.995 151.73 225.641 151.73ZM229.148 156V150.9H231.438C231.984 150.9 232.401 151.023 232.688 151.27C232.974 151.517 233.118 151.833 233.118 152.22C233.118 152.5 233.048 152.733 232.908 152.92C232.774 153.1 232.608 153.23 232.408 153.31C232.668 153.383 232.884 153.527 233.058 153.74C233.238 153.953 233.328 154.223 233.328 154.55C233.328 154.977 233.168 155.327 232.848 155.6C232.534 155.867 232.098 156 231.538 156H229.148ZM231.398 153.82H230.268V155.12H231.398C231.651 155.12 231.844 155.063 231.978 154.95C232.118 154.83 232.188 154.667 232.188 154.46C232.188 154.033 231.924 153.82 231.398 153.82ZM231.298 151.78H230.268V152.96H231.298C231.518 152.96 231.688 152.907 231.808 152.8C231.934 152.693 231.998 152.547 231.998 152.36C231.998 151.973 231.764 151.78 231.298 151.78ZM235.651 150.9V152.45H236.671C237.238 152.45 237.691 152.617 238.031 152.95C238.371 153.277 238.541 153.697 238.541 154.21C238.541 154.73 238.368 155.16 238.021 155.5C237.681 155.833 237.231 156 236.671 156H234.521V150.9H235.651ZM236.531 153.41H235.651V155.05H236.531C236.805 155.05 237.018 154.97 237.171 154.81C237.331 154.65 237.411 154.45 237.411 154.21C237.411 153.97 237.331 153.777 237.171 153.63C237.018 153.483 236.805 153.41 236.531 153.41ZM240.839 156H239.699V150.9H240.839V152.86H241.709C241.823 152.233 242.096 151.73 242.529 151.35C242.963 150.97 243.496 150.78 244.129 150.78C244.869 150.78 245.466 151.03 245.919 151.53C246.373 152.023 246.599 152.663 246.599 153.45C246.599 154.243 246.373 154.887 245.919 155.38C245.466 155.873 244.869 156.12 244.129 156.12C243.469 156.12 242.916 155.917 242.469 155.51C242.029 155.097 241.766 154.55 241.679 153.87H240.839V156ZM243.159 154.66C243.399 154.96 243.723 155.11 244.129 155.11C244.536 155.11 244.856 154.96 245.089 154.66C245.329 154.353 245.449 153.95 245.449 153.45C245.449 152.95 245.329 152.55 245.089 152.25C244.856 151.943 244.536 151.79 244.129 151.79C243.723 151.79 243.399 151.943 243.159 152.25C242.926 152.55 242.809 152.95 242.809 153.45C242.809 153.95 242.926 154.353 243.159 154.66Z" fill="white"/>
<path d="M30.33 137.03V135.96H35.95V137.03H33.74V143H32.55V137.03H30.33ZM40.8962 137.9V143H39.7762V139.61L37.4662 143H36.3662V137.9H37.4862V141.3L39.7962 137.9H40.8962ZM42.3744 137.9H43.8144L45.4344 141.6L47.0544 137.9H48.4744V143H47.3744V139.51L45.8444 142.98H45.0044L43.4744 139.52V143H42.3744V137.9ZM49.4148 143.02V142.02H49.5748C49.8548 142.02 50.0515 141.943 50.1648 141.79C50.2848 141.63 50.3615 141.353 50.3948 140.96L50.6448 137.9H54.3948V143H53.2548V138.9H51.6448L51.4748 141.04C51.4215 141.74 51.2548 142.247 50.9748 142.56C50.7015 142.867 50.2848 143.02 49.7248 143.02H49.4148ZM60.4149 137.9V143H59.2949V139.61L56.9849 143H55.8849V137.9H57.0049V141.3L59.3149 137.9H60.4149ZM67.1531 142V144.28H66.0531V143H62.4531V144.28H61.3531V142H61.7631C62.0631 141.833 62.2531 141.303 62.3331 140.41L62.5231 137.9H66.4131V142H67.1531ZM63.4131 140.45C63.3531 141.237 63.2098 141.753 62.9831 142H65.2731V138.9H63.5331L63.4131 140.45Z" fill="white"/>
<circle cx="325" cy="164" r="34.5" fill="#5A45FB" fill-opacity="0.1" stroke="#5A45FB" stroke-dasharray="5 2"/>
<circle cx="65" cy="59" r="34.5" fill="#0FCD83" fill-opacity="0.1" stroke="#0FCD83" stroke-dasharray="5 2"/>
<path d="M299.884 159.96H301.354L303.604 165.41L305.844 159.96H307.294V167H306.164V161.91L304.074 166.97H303.114L301.024 161.91V167H299.884V159.96ZM313.377 164.78H309.787V164.8C309.787 165.193 309.913 165.52 310.167 165.78C310.42 166.04 310.75 166.17 311.157 166.17C311.437 166.17 311.667 166.113 311.847 166C312.033 165.88 312.15 165.753 312.197 165.62H313.317C313.237 166.007 313.01 166.353 312.637 166.66C312.27 166.967 311.77 167.12 311.137 167.12C310.377 167.12 309.767 166.883 309.307 166.41C308.847 165.93 308.617 165.28 308.617 164.46C308.617 163.64 308.843 162.99 309.297 162.51C309.75 162.023 310.34 161.78 311.067 161.78C311.767 161.78 312.327 162.01 312.747 162.47C313.167 162.93 313.377 163.543 313.377 164.31V164.78ZM311.057 162.73C310.697 162.73 310.403 162.837 310.177 163.05C309.957 163.263 309.83 163.553 309.797 163.92H312.237C312.223 163.547 312.11 163.257 311.897 163.05C311.69 162.837 311.41 162.73 311.057 162.73ZM315.703 167H314.563V161.9H315.703V163.86H317.893V161.9H319.033V167H317.893V164.87H315.703V167ZM324.983 164.78H321.393V164.8C321.393 165.193 321.52 165.52 321.773 165.78C322.026 166.04 322.356 166.17 322.763 166.17C323.043 166.17 323.273 166.113 323.453 166C323.64 165.88 323.756 165.753 323.803 165.62H324.923C324.843 166.007 324.616 166.353 324.243 166.66C323.876 166.967 323.376 167.12 322.743 167.12C321.983 167.12 321.373 166.883 320.913 166.41C320.453 165.93 320.223 165.28 320.223 164.46C320.223 163.64 320.45 162.99 320.903 162.51C321.356 162.023 321.946 161.78 322.673 161.78C323.373 161.78 323.933 162.01 324.353 162.47C324.773 162.93 324.983 163.543 324.983 164.31V164.78ZM322.663 162.73C322.303 162.73 322.01 162.837 321.783 163.05C321.563 163.263 321.436 163.553 321.403 163.92H323.843C323.83 163.547 323.716 163.257 323.503 163.05C323.296 162.837 323.016 162.73 322.663 162.73ZM331.4 166V168.28H330.3V167H326.7V168.28H325.6V166H326.01C326.31 165.833 326.5 165.303 326.58 164.41L326.77 161.9H330.66V166H331.4ZM327.66 164.45C327.6 165.237 327.457 165.753 327.23 166H329.52V162.9H327.78L327.66 164.45ZM336.141 161.9V164.06L337.921 161.9H339.231L337.251 164.3L339.261 167H337.921L336.141 164.6V167H335.021V164.6L333.241 167H331.911L333.911 164.33L331.931 161.9H333.241L335.021 164.06V161.9H336.141ZM344.404 164.78H340.814V164.8C340.814 165.193 340.941 165.52 341.194 165.78C341.447 166.04 341.777 166.17 342.184 166.17C342.464 166.17 342.694 166.113 342.874 166C343.061 165.88 343.177 165.753 343.224 165.62H344.344C344.264 166.007 344.037 166.353 343.664 166.66C343.297 166.967 342.797 167.12 342.164 167.12C341.404 167.12 340.794 166.883 340.334 166.41C339.874 165.93 339.644 165.28 339.644 164.46C339.644 163.64 339.871 162.99 340.324 162.51C340.777 162.023 341.367 161.78 342.094 161.78C342.794 161.78 343.354 162.01 343.774 162.47C344.194 162.93 344.404 163.543 344.404 164.31V164.78ZM342.084 162.73C341.724 162.73 341.431 162.837 341.204 163.05C340.984 163.263 340.857 163.553 340.824 163.92H343.264C343.251 163.547 343.137 163.257 342.924 163.05C342.717 162.837 342.437 162.73 342.084 162.73ZM348.271 161.78C348.904 161.78 349.437 162.017 349.871 162.49C350.311 162.963 350.531 163.617 350.531 164.45C350.531 165.283 350.307 165.937 349.861 166.41C349.421 166.883 348.881 167.12 348.241 167.12C347.887 167.12 347.577 167.057 347.311 166.93C347.051 166.797 346.857 166.63 346.731 166.43V168.91H345.591V161.9H346.691V162.56C347.011 162.04 347.537 161.78 348.271 161.78ZM348.051 166.11C348.451 166.11 348.771 165.96 349.011 165.66C349.257 165.353 349.381 164.95 349.381 164.45C349.381 163.957 349.257 163.557 349.011 163.25C348.771 162.943 348.451 162.79 348.051 162.79C347.644 162.79 347.317 162.94 347.071 163.24C346.824 163.533 346.701 163.93 346.701 164.43V164.47C346.701 164.97 346.824 165.37 347.071 165.67C347.317 165.963 347.644 166.11 348.051 166.11Z" fill="white"/>
<path d="M39.8838 54.96H41.3538L43.6038 60.41L45.8438 54.96H47.2938V62H46.1638V56.91L44.0738 61.97H43.1138L41.0238 56.91V62H39.8838V54.96ZM53.3768 59.78H49.7868V59.8C49.7868 60.1933 49.9135 60.52 50.1668 60.78C50.4201 61.04 50.7501 61.17 51.1568 61.17C51.4368 61.17 51.6668 61.1133 51.8468 61C52.0335 60.88 52.1501 60.7533 52.1968 60.62H53.3168C53.2368 61.0067 53.0101 61.3533 52.6368 61.66C52.2701 61.9667 51.7701 62.12 51.1368 62.12C50.3768 62.12 49.7668 61.8833 49.3068 61.41C48.8468 60.93 48.6168 60.28 48.6168 59.46C48.6168 58.64 48.8435 57.99 49.2968 57.51C49.7501 57.0233 50.3401 56.78 51.0668 56.78C51.7668 56.78 52.3268 57.01 52.7468 57.47C53.1668 57.93 53.3768 58.5433 53.3768 59.31V59.78ZM51.0568 57.73C50.6968 57.73 50.4035 57.8367 50.1768 58.05C49.9568 58.2633 49.8301 58.5533 49.7968 58.92H52.2368C52.2235 58.5467 52.1101 58.2567 51.8968 58.05C51.6901 57.8367 51.4101 57.73 51.0568 57.73ZM55.7034 62H54.5634V56.9H55.7034V58.86H57.8934V56.9H59.0334V62H57.8934V59.87H55.7034V62ZM64.983 59.78H61.393V59.8C61.393 60.1933 61.5197 60.52 61.773 60.78C62.0264 61.04 62.3564 61.17 62.763 61.17C63.043 61.17 63.273 61.1133 63.453 61C63.6397 60.88 63.7564 60.7533 63.803 60.62H64.923C64.843 61.0067 64.6164 61.3533 64.243 61.66C63.8764 61.9667 63.3764 62.12 62.743 62.12C61.983 62.12 61.373 61.8833 60.913 61.41C60.453 60.93 60.223 60.28 60.223 59.46C60.223 58.64 60.4497 57.99 60.903 57.51C61.3564 57.0233 61.9464 56.78 62.673 56.78C63.373 56.78 63.933 57.01 64.353 57.47C64.773 57.93 64.983 58.5433 64.983 59.31V59.78ZM62.663 57.73C62.303 57.73 62.0097 57.8367 61.783 58.05C61.563 58.2633 61.4364 58.5533 61.403 58.92H63.843C63.8297 58.5467 63.7164 58.2567 63.503 58.05C63.2964 57.8367 63.0164 57.73 62.663 57.73ZM71.4004 61V63.28H70.3004V62H66.7004V63.28H65.6004V61H66.0104C66.3104 60.8333 66.5004 60.3033 66.5804 59.41L66.7704 56.9H70.6604V61H71.4004ZM67.6604 59.45C67.6004 60.2367 67.4571 60.7533 67.2304 61H69.5204V57.9H67.7804L67.6604 59.45ZM76.1409 56.9V59.06L77.9209 56.9H79.2309L77.2509 59.3L79.2609 62H77.9209L76.1409 59.6V62H75.0209V59.6L73.2409 62H71.9109L73.9109 59.33L71.9309 56.9H73.2409L75.0209 59.06V56.9H76.1409ZM84.4041 59.78H80.8141V59.8C80.8141 60.1933 80.9408 60.52 81.1941 60.78C81.4475 61.04 81.7775 61.17 82.1841 61.17C82.4641 61.17 82.6941 61.1133 82.8741 61C83.0608 60.88 83.1775 60.7533 83.2241 60.62H84.3441C84.2641 61.0067 84.0375 61.3533 83.6641 61.66C83.2975 61.9667 82.7975 62.12 82.1641 62.12C81.4041 62.12 80.7941 61.8833 80.3341 61.41C79.8741 60.93 79.6441 60.28 79.6441 59.46C79.6441 58.64 79.8708 57.99 80.3241 57.51C80.7775 57.0233 81.3675 56.78 82.0941 56.78C82.7941 56.78 83.3541 57.01 83.7741 57.47C84.1941 57.93 84.4041 58.5433 84.4041 59.31V59.78ZM82.0841 57.73C81.7241 57.73 81.4308 57.8367 81.2041 58.05C80.9841 58.2633 80.8575 58.5533 80.8241 58.92H83.2641C83.2508 58.5467 83.1375 58.2567 82.9241 58.05C82.7175 57.8367 82.4375 57.73 82.0841 57.73ZM88.2708 56.78C88.9041 56.78 89.4374 57.0167 89.8708 57.49C90.3108 57.9633 90.5308 58.6167 90.5308 59.45C90.5308 60.2833 90.3074 60.9367 89.8608 61.41C89.4208 61.8833 88.8808 62.12 88.2408 62.12C87.8874 62.12 87.5774 62.0567 87.3108 61.93C87.0508 61.7967 86.8574 61.63 86.7308 61.43V63.91H85.5908V56.9H86.6908V57.56C87.0108 57.04 87.5374 56.78 88.2708 56.78ZM88.0508 61.11C88.4508 61.11 88.7708 60.96 89.0108 60.66C89.2574 60.3533 89.3808 59.95 89.3808 59.45C89.3808 58.9567 89.2574 58.5567 89.0108 58.25C88.7708 57.9433 88.4508 57.79 88.0508 57.79C87.6441 57.79 87.3174 57.94 87.0708 58.24C86.8241 58.5333 86.7008 58.93 86.7008 59.43V59.47C86.7008 59.97 86.8241 60.37 87.0708 60.67C87.3174 60.9633 87.6441 61.11 88.0508 61.11Z" fill="white"/>
<path d="M291 169H260" stroke="#5A45FB"/>
<path d="M65 94V105" stroke="#0FCD83"/>
</svg>
