<svg width="536" height="257" viewBox="0 0 536 257" fill="none" xmlns="http://www.w3.org/2000/svg">
<rect x="0.5" y="104.5" width="237" height="128" rx="7.5" fill="#5A45FB" fill-opacity="0.1" stroke="#5A45FB"/>
<rect x="254.5" y="104.5" width="132" height="128" rx="7.5" fill="#0FCD83" fill-opacity="0.1" stroke="#0FCD83"/>
<rect x="403.5" y="104.5" width="132" height="128" rx="7.5" fill="#0FCD83" fill-opacity="0.1" stroke="#0FCD83"/>
<rect x="20.5" y="167.5" width="92" height="45" rx="7.5" fill="#5A45FB" fill-opacity="0.1" stroke="#5A45FB"/>
<rect x="274.5" y="167.5" width="92" height="45" rx="7.5" fill="#0FCD83" fill-opacity="0.1" stroke="#0FCD83"/>
<rect x="423.5" y="167.5" width="92" height="45" rx="7.5" fill="#0FCD83" fill-opacity="0.1" stroke="#0FCD83"/>
<rect x="20.5" y="124.5" width="197" height="32" rx="7.5" fill="#5A45FB" fill-opacity="0.1" stroke="#5A45FB"/>
<rect x="274.5" y="124.5" width="92" height="32" rx="7.5" fill="#0FCD83" fill-opacity="0.1" stroke="#0FCD83"/>
<rect x="423.5" y="124.5" width="92" height="32" rx="7.5" fill="#0FCD83" fill-opacity="0.1" stroke="#0FCD83"/>
<rect x="125.5" y="167.5" width="92" height="45" rx="7.5" fill="#5A45FB" fill-opacity="0.1" stroke="#5A45FB"/>
<path d="M32 186H30.81V178.96H32V182.01L34.82 178.96H36.27L33.18 182.33L36.33 186H34.83L32 182.76V186ZM37.2642 181.52C37.7309 181.027 38.3376 180.78 39.0842 180.78C39.8309 180.78 40.4342 181.027 40.8942 181.52C41.3609 182.013 41.5942 182.657 41.5942 183.45C41.5942 184.243 41.3609 184.887 40.8942 185.38C40.4342 185.873 39.8309 186.12 39.0842 186.12C38.3376 186.12 37.7309 185.873 37.2642 185.38C36.8042 184.887 36.5742 184.243 36.5742 183.45C36.5742 182.657 36.8042 182.013 37.2642 181.52ZM38.0942 184.65C38.3409 184.957 38.6709 185.11 39.0842 185.11C39.4976 185.11 39.8242 184.957 40.0642 184.65C40.3109 184.343 40.4342 183.943 40.4342 183.45C40.4342 182.957 40.3109 182.557 40.0642 182.25C39.8242 181.943 39.4976 181.79 39.0842 181.79C38.6709 181.79 38.3409 181.943 38.0942 182.25C37.8542 182.557 37.7342 182.957 37.7342 183.45C37.7342 183.943 37.8542 184.343 38.0942 184.65ZM42.7845 180.9H44.2245L45.8445 184.6L47.4645 180.9H48.8845V186H47.7845V182.51L46.2545 185.98H45.4145L43.8845 182.52V186H42.7845V180.9ZM53.355 182.62C53.355 182.333 53.2617 182.113 53.075 181.96C52.895 181.8 52.655 181.72 52.355 181.72C51.815 181.72 51.4783 181.917 51.345 182.31H50.265C50.345 181.87 50.5683 181.507 50.935 181.22C51.3083 180.927 51.795 180.78 52.395 180.78C53.0283 180.78 53.5317 180.943 53.905 181.27C54.285 181.597 54.475 182.053 54.475 182.64V186H53.415V185.42C53.0417 185.887 52.515 186.12 51.835 186.12C51.3283 186.12 50.905 185.977 50.565 185.69C50.2317 185.397 50.065 185.007 50.065 184.52C50.065 184.013 50.245 183.62 50.605 183.34C50.9717 183.053 51.475 182.91 52.115 182.91H53.355V182.62ZM52.085 185.19C52.4383 185.19 52.7383 185.09 52.985 184.89C53.2317 184.683 53.355 184.413 53.355 184.08V183.77H52.195C51.895 183.77 51.655 183.833 51.475 183.96C51.3017 184.08 51.215 184.253 51.215 184.48C51.215 184.707 51.295 184.883 51.455 185.01C51.615 185.13 51.825 185.19 52.085 185.19ZM57.0542 186H55.9142V180.9H57.0542V182.86H59.2442V180.9H60.3842V186H59.2442V183.87H57.0542V186ZM67.1238 185V187.28H66.0238V186H62.4238V187.28H61.3238V185H61.7338C62.0338 184.833 62.2238 184.303 62.3038 183.41L62.4938 180.9H66.3838V185H67.1238ZM63.3838 183.45C63.3238 184.237 63.1805 184.753 62.9538 185H65.2438V181.9H63.5038L63.3838 183.45ZM71.1843 182.62C71.1843 182.333 71.091 182.113 70.9043 181.96C70.7243 181.8 70.4843 181.72 70.1843 181.72C69.6443 181.72 69.3076 181.917 69.1743 182.31H68.0943C68.1743 181.87 68.3976 181.507 68.7643 181.22C69.1376 180.927 69.6243 180.78 70.2243 180.78C70.8576 180.78 71.361 180.943 71.7343 181.27C72.1143 181.597 72.3043 182.053 72.3043 182.64V186H71.2443V185.42C70.871 185.887 70.3443 186.12 69.6643 186.12C69.1576 186.12 68.7343 185.977 68.3943 185.69C68.061 185.397 67.8943 185.007 67.8943 184.52C67.8943 184.013 68.0743 183.62 68.4343 183.34C68.801 183.053 69.3043 182.91 69.9443 182.91H71.1843V182.62ZM69.9143 185.19C70.2676 185.19 70.5676 185.09 70.8143 184.89C71.061 184.683 71.1843 184.413 71.1843 184.08V183.77H70.0243C69.7243 183.77 69.4843 183.833 69.3043 183.96C69.131 184.08 69.0443 184.253 69.0443 184.48C69.0443 184.707 69.1243 184.883 69.2843 185.01C69.4443 185.13 69.6543 185.19 69.9143 185.19ZM35.95 198V200.28H34.85V199H31.25V200.28H30.15V198H30.56C30.86 197.833 31.05 197.303 31.13 196.41L31.32 193.9H35.21V198H35.95ZM32.21 196.45C32.15 197.237 32.0067 197.753 31.78 198H34.07V194.9H32.33L32.21 196.45ZM41.5505 193.9V199H40.4305V195.61L38.1205 199H37.0205V193.9H38.1405V197.3L40.4505 193.9H41.5505ZM42.7887 195.33C42.842 194.843 43.0653 194.463 43.4587 194.19C43.8587 193.917 44.3387 193.78 44.8987 193.78C45.4453 193.78 45.8953 193.913 46.2487 194.18C46.602 194.447 46.7787 194.8 46.7787 195.24C46.7787 195.773 46.532 196.143 46.0387 196.35C46.2853 196.403 46.502 196.53 46.6887 196.73C46.882 196.923 46.9787 197.19 46.9787 197.53C46.9787 198.003 46.782 198.387 46.3887 198.68C46.002 198.973 45.4987 199.12 44.8787 199.12C44.2787 199.12 43.782 198.977 43.3887 198.69C42.9953 198.403 42.7653 198.007 42.6987 197.5H43.8087C43.862 197.72 43.982 197.89 44.1687 198.01C44.362 198.123 44.5987 198.18 44.8787 198.18C45.172 198.18 45.4053 198.12 45.5787 198C45.752 197.873 45.8387 197.7 45.8387 197.48C45.8387 197.067 45.522 196.86 44.8887 196.86H44.1387V195.96H44.8287C45.0953 195.96 45.2987 195.907 45.4387 195.8C45.5853 195.687 45.6587 195.53 45.6587 195.33C45.6587 195.137 45.582 194.987 45.4287 194.88C45.282 194.773 45.0853 194.72 44.8387 194.72C44.5787 194.72 44.3653 194.777 44.1987 194.89C44.032 195.003 43.9253 195.15 43.8787 195.33H42.7887ZM51.1675 195.62C51.1675 195.333 51.0742 195.113 50.8875 194.96C50.7075 194.8 50.4675 194.72 50.1675 194.72C49.6275 194.72 49.2908 194.917 49.1575 195.31H48.0775C48.1575 194.87 48.3808 194.507 48.7475 194.22C49.1208 193.927 49.6075 193.78 50.2075 193.78C50.8408 193.78 51.3442 193.943 51.7175 194.27C52.0975 194.597 52.2875 195.053 52.2875 195.64V199H51.2275V198.42C50.8542 198.887 50.3275 199.12 49.6475 199.12C49.1408 199.12 48.7175 198.977 48.3775 198.69C48.0442 198.397 47.8775 198.007 47.8775 197.52C47.8775 197.013 48.0575 196.62 48.4175 196.34C48.7842 196.053 49.2875 195.91 49.9275 195.91H51.1675V195.62ZM49.8975 198.19C50.2508 198.19 50.5508 198.09 50.7975 197.89C51.0442 197.683 51.1675 197.413 51.1675 197.08V196.77H50.0075C49.7075 196.77 49.4675 196.833 49.2875 196.96C49.1142 197.08 49.0275 197.253 49.0275 197.48C49.0275 197.707 49.1075 197.883 49.2675 198.01C49.4275 198.13 49.6375 198.19 49.8975 198.19ZM58.2567 193.9V199H57.1367V195.61L54.8267 199H53.7267V193.9H54.8467V197.3L57.1567 193.9H58.2567ZM55.2267 191.59C55.2267 191.83 55.2934 192.03 55.4267 192.19C55.5601 192.35 55.7501 192.43 55.9967 192.43C56.2434 192.43 56.4334 192.35 56.5667 192.19C56.7001 192.03 56.7667 191.83 56.7667 191.59H57.6867C57.6734 192.09 57.5134 192.49 57.2067 192.79C56.9067 193.09 56.5034 193.24 55.9967 193.24C55.4901 193.24 55.0834 193.09 54.7767 192.79C54.4767 192.49 54.3201 192.09 54.3067 191.59H55.2267ZM60.8749 199H59.7349V193.9H60.8749V195.86H63.0649V193.9H64.2049V199H63.0649V196.87H60.8749V199ZM70.1545 196.78H66.5645V196.8C66.5645 197.193 66.6912 197.52 66.9445 197.78C67.1979 198.04 67.5279 198.17 67.9345 198.17C68.2145 198.17 68.4445 198.113 68.6245 198C68.8112 197.88 68.9279 197.753 68.9745 197.62H70.0945C70.0145 198.007 69.7879 198.353 69.4145 198.66C69.0479 198.967 68.5479 199.12 67.9145 199.12C67.1545 199.12 66.5445 198.883 66.0845 198.41C65.6245 197.93 65.3945 197.28 65.3945 196.46C65.3945 195.64 65.6212 194.99 66.0745 194.51C66.5279 194.023 67.1179 193.78 67.8445 193.78C68.5445 193.78 69.1045 194.01 69.5245 194.47C69.9445 194.93 70.1545 195.543 70.1545 196.31V196.78ZM67.8345 194.73C67.4745 194.73 67.1812 194.837 66.9545 195.05C66.7345 195.263 66.6079 195.553 66.5745 195.92H69.0145C69.0012 195.547 68.8879 195.257 68.6745 195.05C68.4679 194.837 68.1879 194.73 67.8345 194.73ZM74.0212 193.78C74.6545 193.78 75.1878 194.017 75.6212 194.49C76.0612 194.963 76.2812 195.617 76.2812 196.45C76.2812 197.283 76.0578 197.937 75.6112 198.41C75.1712 198.883 74.6312 199.12 73.9912 199.12C73.6378 199.12 73.3278 199.057 73.0612 198.93C72.8012 198.797 72.6078 198.63 72.4812 198.43V200.91H71.3412V193.9H72.4412V194.56C72.7612 194.04 73.2878 193.78 74.0212 193.78ZM73.8012 198.11C74.2012 198.11 74.5212 197.96 74.7612 197.66C75.0078 197.353 75.1312 196.95 75.1312 196.45C75.1312 195.957 75.0078 195.557 74.7612 195.25C74.5212 194.943 74.2012 194.79 73.8012 194.79C73.3945 194.79 73.0678 194.94 72.8212 195.24C72.5745 195.533 72.4512 195.93 72.4512 196.43V196.47C72.4512 196.97 72.5745 197.37 72.8212 197.67C73.0678 197.963 73.3945 198.11 73.8012 198.11ZM77.8666 194.52C78.3332 194.027 78.9399 193.78 79.6866 193.78C80.4332 193.78 81.0366 194.027 81.4966 194.52C81.9632 195.013 82.1966 195.657 82.1966 196.45C82.1966 197.243 81.9632 197.887 81.4966 198.38C81.0366 198.873 80.4332 199.12 79.6866 199.12C78.9399 199.12 78.3332 198.873 77.8666 198.38C77.4066 197.887 77.1766 197.243 77.1766 196.45C77.1766 195.657 77.4066 195.013 77.8666 194.52ZM78.6966 197.65C78.9432 197.957 79.2732 198.11 79.6866 198.11C80.0999 198.11 80.4266 197.957 80.6666 197.65C80.9132 197.343 81.0366 196.943 81.0366 196.45C81.0366 195.957 80.9132 195.557 80.6666 195.25C80.4266 194.943 80.0999 194.79 79.6866 194.79C79.2732 194.79 78.9432 194.943 78.6966 195.25C78.4566 195.557 78.3366 195.957 78.3366 196.45C78.3366 196.943 78.4566 197.343 78.6966 197.65ZM83.3869 199V193.9H85.6769C86.2235 193.9 86.6402 194.023 86.9269 194.27C87.2135 194.517 87.3569 194.833 87.3569 195.22C87.3569 195.5 87.2869 195.733 87.1469 195.92C87.0135 196.1 86.8469 196.23 86.6469 196.31C86.9069 196.383 87.1235 196.527 87.2969 196.74C87.4769 196.953 87.5669 197.223 87.5669 197.55C87.5669 197.977 87.4069 198.327 87.0869 198.6C86.7735 198.867 86.3369 199 85.7769 199H83.3869ZM85.6369 196.82H84.5069V198.12H85.6369C85.8902 198.12 86.0835 198.063 86.2169 197.95C86.3569 197.83 86.4269 197.667 86.4269 197.46C86.4269 197.033 86.1635 196.82 85.6369 196.82ZM85.5369 194.78H84.5069V195.96H85.5369C85.7569 195.96 85.9269 195.907 86.0469 195.8C86.1735 195.693 86.2369 195.547 86.2369 195.36C86.2369 194.973 86.0035 194.78 85.5369 194.78Z" fill="white"/>
<path d="M286 186H284.81V178.96H286V182.01L288.82 178.96H290.27L287.18 182.33L290.33 186H288.83L286 182.76V186ZM291.264 181.52C291.731 181.027 292.338 180.78 293.084 180.78C293.831 180.78 294.434 181.027 294.894 181.52C295.361 182.013 295.594 182.657 295.594 183.45C295.594 184.243 295.361 184.887 294.894 185.38C294.434 185.873 293.831 186.12 293.084 186.12C292.338 186.12 291.731 185.873 291.264 185.38C290.804 184.887 290.574 184.243 290.574 183.45C290.574 182.657 290.804 182.013 291.264 181.52ZM292.094 184.65C292.341 184.957 292.671 185.11 293.084 185.11C293.498 185.11 293.824 184.957 294.064 184.65C294.311 184.343 294.434 183.943 294.434 183.45C294.434 182.957 294.311 182.557 294.064 182.25C293.824 181.943 293.498 181.79 293.084 181.79C292.671 181.79 292.341 181.943 292.094 182.25C291.854 182.557 291.734 182.957 291.734 183.45C291.734 183.943 291.854 184.343 292.094 184.65ZM296.785 180.9H298.225L299.845 184.6L301.465 180.9H302.885V186H301.785V182.51L300.255 185.98H299.415L297.885 182.52V186H296.785V180.9ZM307.355 182.62C307.355 182.333 307.262 182.113 307.075 181.96C306.895 181.8 306.655 181.72 306.355 181.72C305.815 181.72 305.478 181.917 305.345 182.31H304.265C304.345 181.87 304.568 181.507 304.935 181.22C305.308 180.927 305.795 180.78 306.395 180.78C307.028 180.78 307.532 180.943 307.905 181.27C308.285 181.597 308.475 182.053 308.475 182.64V186H307.415V185.42C307.042 185.887 306.515 186.12 305.835 186.12C305.328 186.12 304.905 185.977 304.565 185.69C304.232 185.397 304.065 185.007 304.065 184.52C304.065 184.013 304.245 183.62 304.605 183.34C304.972 183.053 305.475 182.91 306.115 182.91H307.355V182.62ZM306.085 185.19C306.438 185.19 306.738 185.09 306.985 184.89C307.232 184.683 307.355 184.413 307.355 184.08V183.77H306.195C305.895 183.77 305.655 183.833 305.475 183.96C305.302 184.08 305.215 184.253 305.215 184.48C305.215 184.707 305.295 184.883 305.455 185.01C305.615 185.13 305.825 185.19 306.085 185.19ZM311.054 186H309.914V180.9H311.054V182.86H313.244V180.9H314.384V186H313.244V183.87H311.054V186ZM321.124 185V187.28H320.024V186H316.424V187.28H315.324V185H315.734C316.034 184.833 316.224 184.303 316.304 183.41L316.494 180.9H320.384V185H321.124ZM317.384 183.45C317.324 184.237 317.18 184.753 316.954 185H319.244V181.9H317.504L317.384 183.45ZM325.184 182.62C325.184 182.333 325.091 182.113 324.904 181.96C324.724 181.8 324.484 181.72 324.184 181.72C323.644 181.72 323.308 181.917 323.174 182.31H322.094C322.174 181.87 322.398 181.507 322.764 181.22C323.138 180.927 323.624 180.78 324.224 180.78C324.858 180.78 325.361 180.943 325.734 181.27C326.114 181.597 326.304 182.053 326.304 182.64V186H325.244V185.42C324.871 185.887 324.344 186.12 323.664 186.12C323.158 186.12 322.734 185.977 322.394 185.69C322.061 185.397 321.894 185.007 321.894 184.52C321.894 184.013 322.074 183.62 322.434 183.34C322.801 183.053 323.304 182.91 323.944 182.91H325.184V182.62ZM323.914 185.19C324.268 185.19 324.568 185.09 324.814 184.89C325.061 184.683 325.184 184.413 325.184 184.08V183.77H324.024C323.724 183.77 323.484 183.833 323.304 183.96C323.131 184.08 323.044 184.253 323.044 184.48C323.044 184.707 323.124 184.883 323.284 185.01C323.444 185.13 323.654 185.19 323.914 185.19ZM287.37 193.78C288.003 193.78 288.537 194.017 288.97 194.49C289.41 194.963 289.63 195.617 289.63 196.45C289.63 197.283 289.407 197.937 288.96 198.41C288.52 198.883 287.98 199.12 287.34 199.12C286.987 199.12 286.677 199.057 286.41 198.93C286.15 198.797 285.957 198.63 285.83 198.43V200.91H284.69V193.9H285.79V194.56C286.11 194.04 286.637 193.78 287.37 193.78ZM287.15 198.11C287.55 198.11 287.87 197.96 288.11 197.66C288.357 197.353 288.48 196.95 288.48 196.45C288.48 195.957 288.357 195.557 288.11 195.25C287.87 194.943 287.55 194.79 287.15 194.79C286.743 194.79 286.417 194.94 286.17 195.24C285.923 195.533 285.8 195.93 285.8 196.43V196.47C285.8 196.97 285.923 197.37 286.17 197.67C286.417 197.963 286.743 198.11 287.15 198.11ZM293.805 195.62C293.805 195.333 293.712 195.113 293.525 194.96C293.345 194.8 293.105 194.72 292.805 194.72C292.265 194.72 291.929 194.917 291.795 195.31H290.715C290.795 194.87 291.019 194.507 291.385 194.22C291.759 193.927 292.245 193.78 292.845 193.78C293.479 193.78 293.982 193.943 294.355 194.27C294.735 194.597 294.925 195.053 294.925 195.64V199H293.865V198.42C293.492 198.887 292.965 199.12 292.285 199.12C291.779 199.12 291.355 198.977 291.015 198.69C290.682 198.397 290.515 198.007 290.515 197.52C290.515 197.013 290.695 196.62 291.055 196.34C291.422 196.053 291.925 195.91 292.565 195.91H293.805V195.62ZM292.535 198.19C292.889 198.19 293.189 198.09 293.435 197.89C293.682 197.683 293.805 197.413 293.805 197.08V196.77H292.645C292.345 196.77 292.105 196.833 291.925 196.96C291.752 197.08 291.665 197.253 291.665 197.48C291.665 197.707 291.745 197.883 291.905 198.01C292.065 198.13 292.275 198.19 292.535 198.19ZM296.125 195.33C296.178 194.843 296.401 194.463 296.795 194.19C297.195 193.917 297.675 193.78 298.235 193.78C298.781 193.78 299.231 193.913 299.585 194.18C299.938 194.447 300.115 194.8 300.115 195.24C300.115 195.773 299.868 196.143 299.375 196.35C299.621 196.403 299.838 196.53 300.025 196.73C300.218 196.923 300.315 197.19 300.315 197.53C300.315 198.003 300.118 198.387 299.725 198.68C299.338 198.973 298.835 199.12 298.215 199.12C297.615 199.12 297.118 198.977 296.725 198.69C296.331 198.403 296.101 198.007 296.035 197.5H297.145C297.198 197.72 297.318 197.89 297.505 198.01C297.698 198.123 297.935 198.18 298.215 198.18C298.508 198.18 298.741 198.12 298.915 198C299.088 197.873 299.175 197.7 299.175 197.48C299.175 197.067 298.858 196.86 298.225 196.86H297.475V195.96H298.165C298.431 195.96 298.635 195.907 298.775 195.8C298.921 195.687 298.995 195.53 298.995 195.33C298.995 195.137 298.918 194.987 298.765 194.88C298.618 194.773 298.421 194.72 298.175 194.72C297.915 194.72 297.701 194.777 297.535 194.89C297.368 195.003 297.261 195.15 297.215 195.33H296.125ZM304.193 193.78C304.827 193.78 305.36 194.017 305.793 194.49C306.233 194.963 306.453 195.617 306.453 196.45C306.453 197.283 306.23 197.937 305.783 198.41C305.343 198.883 304.803 199.12 304.163 199.12C303.81 199.12 303.5 199.057 303.233 198.93C302.973 198.797 302.78 198.63 302.653 198.43V200.91H301.513V193.9H302.613V194.56C302.933 194.04 303.46 193.78 304.193 193.78ZM303.973 198.11C304.373 198.11 304.693 197.96 304.933 197.66C305.18 197.353 305.303 196.95 305.303 196.45C305.303 195.957 305.18 195.557 304.933 195.25C304.693 194.943 304.373 194.79 303.973 194.79C303.567 194.79 303.24 194.94 302.993 195.24C302.747 195.533 302.623 195.93 302.623 196.43V196.47C302.623 196.97 302.747 197.37 302.993 197.67C303.24 197.963 303.567 198.11 303.973 198.11ZM310.629 195.62C310.629 195.333 310.535 195.113 310.349 194.96C310.169 194.8 309.929 194.72 309.629 194.72C309.089 194.72 308.752 194.917 308.619 195.31H307.539C307.619 194.87 307.842 194.507 308.209 194.22C308.582 193.927 309.069 193.78 309.669 193.78C310.302 193.78 310.805 193.943 311.179 194.27C311.559 194.597 311.749 195.053 311.749 195.64V199H310.689V198.42C310.315 198.887 309.789 199.12 309.109 199.12C308.602 199.12 308.179 198.977 307.839 198.69C307.505 198.397 307.339 198.007 307.339 197.52C307.339 197.013 307.519 196.62 307.879 196.34C308.245 196.053 308.749 195.91 309.389 195.91H310.629V195.62ZM309.359 198.19C309.712 198.19 310.012 198.09 310.259 197.89C310.505 197.683 310.629 197.413 310.629 197.08V196.77H309.469C309.169 196.77 308.929 196.833 308.749 196.96C308.575 197.08 308.489 197.253 308.489 197.48C308.489 197.707 308.569 197.883 308.729 198.01C308.889 198.13 309.099 198.19 309.359 198.19ZM315.798 193.94C316.471 193.94 317.018 194.17 317.438 194.63C317.865 195.09 318.078 195.713 318.078 196.5C318.078 197.24 317.851 197.863 317.398 198.37C316.951 198.87 316.358 199.12 315.618 199.12C314.791 199.12 314.145 198.843 313.678 198.29C313.211 197.73 312.978 196.953 312.978 195.96C312.978 194.74 313.171 193.817 313.558 193.19C313.945 192.557 314.595 192.157 315.508 191.99L317.578 191.61V192.65L315.678 192.96C315.151 193.053 314.765 193.243 314.518 193.53C314.271 193.81 314.121 194.223 314.068 194.77C314.448 194.217 315.025 193.94 315.798 193.94ZM315.558 198.13C315.978 198.13 316.308 197.98 316.548 197.68C316.795 197.373 316.918 196.98 316.918 196.5C316.918 196.033 316.795 195.653 316.548 195.36C316.308 195.06 315.981 194.91 315.568 194.91C315.155 194.91 314.818 195.053 314.558 195.34C314.298 195.62 314.168 196 314.168 196.48C314.168 196.973 314.291 197.373 314.538 197.68C314.791 197.98 315.131 198.13 315.558 198.13ZM319.665 194.52C320.131 194.027 320.738 193.78 321.485 193.78C322.231 193.78 322.835 194.027 323.295 194.52C323.761 195.013 323.995 195.657 323.995 196.45C323.995 197.243 323.761 197.887 323.295 198.38C322.835 198.873 322.231 199.12 321.485 199.12C320.738 199.12 320.131 198.873 319.665 198.38C319.205 197.887 318.975 197.243 318.975 196.45C318.975 195.657 319.205 195.013 319.665 194.52ZM320.495 197.65C320.741 197.957 321.071 198.11 321.485 198.11C321.898 198.11 322.225 197.957 322.465 197.65C322.711 197.343 322.835 196.943 322.835 196.45C322.835 195.957 322.711 195.557 322.465 195.25C322.225 194.943 321.898 194.79 321.485 194.79C321.071 194.79 320.741 194.943 320.495 195.25C320.255 195.557 320.135 195.957 320.135 196.45C320.135 196.943 320.255 197.343 320.495 197.65ZM324.59 194.9V193.9H328.99V194.9H327.36V199H326.22V194.9H324.59ZM331.21 199H330.07V193.9H331.21V196.02L333.17 193.9H334.52L332.32 196.29L334.55 199H333.17L331.21 196.62V199ZM339.974 193.9V199H338.854V195.61L336.544 199H335.444V193.9H336.564V197.3L338.874 193.9H339.974Z" fill="white"/>
<path d="M435 186H433.81V178.96H435V182.01L437.82 178.96H439.27L436.18 182.33L439.33 186H437.83L435 182.76V186ZM440.264 181.52C440.731 181.027 441.338 180.78 442.084 180.78C442.831 180.78 443.434 181.027 443.894 181.52C444.361 182.013 444.594 182.657 444.594 183.45C444.594 184.243 444.361 184.887 443.894 185.38C443.434 185.873 442.831 186.12 442.084 186.12C441.338 186.12 440.731 185.873 440.264 185.38C439.804 184.887 439.574 184.243 439.574 183.45C439.574 182.657 439.804 182.013 440.264 181.52ZM441.094 184.65C441.341 184.957 441.671 185.11 442.084 185.11C442.498 185.11 442.824 184.957 443.064 184.65C443.311 184.343 443.434 183.943 443.434 183.45C443.434 182.957 443.311 182.557 443.064 182.25C442.824 181.943 442.498 181.79 442.084 181.79C441.671 181.79 441.341 181.943 441.094 182.25C440.854 182.557 440.734 182.957 440.734 183.45C440.734 183.943 440.854 184.343 441.094 184.65ZM445.785 180.9H447.225L448.845 184.6L450.465 180.9H451.885V186H450.785V182.51L449.255 185.98H448.415L446.885 182.52V186H445.785V180.9ZM456.355 182.62C456.355 182.333 456.262 182.113 456.075 181.96C455.895 181.8 455.655 181.72 455.355 181.72C454.815 181.72 454.478 181.917 454.345 182.31H453.265C453.345 181.87 453.568 181.507 453.935 181.22C454.308 180.927 454.795 180.78 455.395 180.78C456.028 180.78 456.532 180.943 456.905 181.27C457.285 181.597 457.475 182.053 457.475 182.64V186H456.415V185.42C456.042 185.887 455.515 186.12 454.835 186.12C454.328 186.12 453.905 185.977 453.565 185.69C453.232 185.397 453.065 185.007 453.065 184.52C453.065 184.013 453.245 183.62 453.605 183.34C453.972 183.053 454.475 182.91 455.115 182.91H456.355V182.62ZM455.085 185.19C455.438 185.19 455.738 185.09 455.985 184.89C456.232 184.683 456.355 184.413 456.355 184.08V183.77H455.195C454.895 183.77 454.655 183.833 454.475 183.96C454.302 184.08 454.215 184.253 454.215 184.48C454.215 184.707 454.295 184.883 454.455 185.01C454.615 185.13 454.825 185.19 455.085 185.19ZM460.054 186H458.914V180.9H460.054V182.86H462.244V180.9H463.384V186H462.244V183.87H460.054V186ZM470.124 185V187.28H469.024V186H465.424V187.28H464.324V185H464.734C465.034 184.833 465.224 184.303 465.304 183.41L465.494 180.9H469.384V185H470.124ZM466.384 183.45C466.324 184.237 466.18 184.753 465.954 185H468.244V181.9H466.504L466.384 183.45ZM474.184 182.62C474.184 182.333 474.091 182.113 473.904 181.96C473.724 181.8 473.484 181.72 473.184 181.72C472.644 181.72 472.308 181.917 472.174 182.31H471.094C471.174 181.87 471.398 181.507 471.764 181.22C472.138 180.927 472.624 180.78 473.224 180.78C473.858 180.78 474.361 180.943 474.734 181.27C475.114 181.597 475.304 182.053 475.304 182.64V186H474.244V185.42C473.871 185.887 473.344 186.12 472.664 186.12C472.158 186.12 471.734 185.977 471.394 185.69C471.061 185.397 470.894 185.007 470.894 184.52C470.894 184.013 471.074 183.62 471.434 183.34C471.801 183.053 472.304 182.91 472.944 182.91H474.184V182.62ZM472.914 185.19C473.268 185.19 473.568 185.09 473.814 184.89C474.061 184.683 474.184 184.413 474.184 184.08V183.77H473.024C472.724 183.77 472.484 183.833 472.304 183.96C472.131 184.08 472.044 184.253 472.044 184.48C472.044 184.707 472.124 184.883 472.284 185.01C472.444 185.13 472.654 185.19 472.914 185.19ZM436.37 193.78C437.003 193.78 437.537 194.017 437.97 194.49C438.41 194.963 438.63 195.617 438.63 196.45C438.63 197.283 438.407 197.937 437.96 198.41C437.52 198.883 436.98 199.12 436.34 199.12C435.987 199.12 435.677 199.057 435.41 198.93C435.15 198.797 434.957 198.63 434.83 198.43V200.91H433.69V193.9H434.79V194.56C435.11 194.04 435.637 193.78 436.37 193.78ZM436.15 198.11C436.55 198.11 436.87 197.96 437.11 197.66C437.357 197.353 437.48 196.95 437.48 196.45C437.48 195.957 437.357 195.557 437.11 195.25C436.87 194.943 436.55 194.79 436.15 194.79C435.743 194.79 435.417 194.94 435.17 195.24C434.923 195.533 434.8 195.93 434.8 196.43V196.47C434.8 196.97 434.923 197.37 435.17 197.67C435.417 197.963 435.743 198.11 436.15 198.11ZM442.805 195.62C442.805 195.333 442.712 195.113 442.525 194.96C442.345 194.8 442.105 194.72 441.805 194.72C441.265 194.72 440.929 194.917 440.795 195.31H439.715C439.795 194.87 440.019 194.507 440.385 194.22C440.759 193.927 441.245 193.78 441.845 193.78C442.479 193.78 442.982 193.943 443.355 194.27C443.735 194.597 443.925 195.053 443.925 195.64V199H442.865V198.42C442.492 198.887 441.965 199.12 441.285 199.12C440.779 199.12 440.355 198.977 440.015 198.69C439.682 198.397 439.515 198.007 439.515 197.52C439.515 197.013 439.695 196.62 440.055 196.34C440.422 196.053 440.925 195.91 441.565 195.91H442.805V195.62ZM441.535 198.19C441.889 198.19 442.189 198.09 442.435 197.89C442.682 197.683 442.805 197.413 442.805 197.08V196.77H441.645C441.345 196.77 441.105 196.833 440.925 196.96C440.752 197.08 440.665 197.253 440.665 197.48C440.665 197.707 440.745 197.883 440.905 198.01C441.065 198.13 441.275 198.19 441.535 198.19ZM445.125 195.33C445.178 194.843 445.401 194.463 445.795 194.19C446.195 193.917 446.675 193.78 447.235 193.78C447.781 193.78 448.231 193.913 448.585 194.18C448.938 194.447 449.115 194.8 449.115 195.24C449.115 195.773 448.868 196.143 448.375 196.35C448.621 196.403 448.838 196.53 449.025 196.73C449.218 196.923 449.315 197.19 449.315 197.53C449.315 198.003 449.118 198.387 448.725 198.68C448.338 198.973 447.835 199.12 447.215 199.12C446.615 199.12 446.118 198.977 445.725 198.69C445.331 198.403 445.101 198.007 445.035 197.5H446.145C446.198 197.72 446.318 197.89 446.505 198.01C446.698 198.123 446.935 198.18 447.215 198.18C447.508 198.18 447.741 198.12 447.915 198C448.088 197.873 448.175 197.7 448.175 197.48C448.175 197.067 447.858 196.86 447.225 196.86H446.475V195.96H447.165C447.431 195.96 447.635 195.907 447.775 195.8C447.921 195.687 447.995 195.53 447.995 195.33C447.995 195.137 447.918 194.987 447.765 194.88C447.618 194.773 447.421 194.72 447.175 194.72C446.915 194.72 446.701 194.777 446.535 194.89C446.368 195.003 446.261 195.15 446.215 195.33H445.125ZM453.193 193.78C453.827 193.78 454.36 194.017 454.793 194.49C455.233 194.963 455.453 195.617 455.453 196.45C455.453 197.283 455.23 197.937 454.783 198.41C454.343 198.883 453.803 199.12 453.163 199.12C452.81 199.12 452.5 199.057 452.233 198.93C451.973 198.797 451.78 198.63 451.653 198.43V200.91H450.513V193.9H451.613V194.56C451.933 194.04 452.46 193.78 453.193 193.78ZM452.973 198.11C453.373 198.11 453.693 197.96 453.933 197.66C454.18 197.353 454.303 196.95 454.303 196.45C454.303 195.957 454.18 195.557 453.933 195.25C453.693 194.943 453.373 194.79 452.973 194.79C452.567 194.79 452.24 194.94 451.993 195.24C451.747 195.533 451.623 195.93 451.623 196.43V196.47C451.623 196.97 451.747 197.37 451.993 197.67C452.24 197.963 452.567 198.11 452.973 198.11ZM459.629 195.62C459.629 195.333 459.535 195.113 459.349 194.96C459.169 194.8 458.929 194.72 458.629 194.72C458.089 194.72 457.752 194.917 457.619 195.31H456.539C456.619 194.87 456.842 194.507 457.209 194.22C457.582 193.927 458.069 193.78 458.669 193.78C459.302 193.78 459.805 193.943 460.179 194.27C460.559 194.597 460.749 195.053 460.749 195.64V199H459.689V198.42C459.315 198.887 458.789 199.12 458.109 199.12C457.602 199.12 457.179 198.977 456.839 198.69C456.505 198.397 456.339 198.007 456.339 197.52C456.339 197.013 456.519 196.62 456.879 196.34C457.245 196.053 457.749 195.91 458.389 195.91H459.629V195.62ZM458.359 198.19C458.712 198.19 459.012 198.09 459.259 197.89C459.505 197.683 459.629 197.413 459.629 197.08V196.77H458.469C458.169 196.77 457.929 196.833 457.749 196.96C457.575 197.08 457.489 197.253 457.489 197.48C457.489 197.707 457.569 197.883 457.729 198.01C457.889 198.13 458.099 198.19 458.359 198.19ZM464.798 193.94C465.471 193.94 466.018 194.17 466.438 194.63C466.865 195.09 467.078 195.713 467.078 196.5C467.078 197.24 466.851 197.863 466.398 198.37C465.951 198.87 465.358 199.12 464.618 199.12C463.791 199.12 463.145 198.843 462.678 198.29C462.211 197.73 461.978 196.953 461.978 195.96C461.978 194.74 462.171 193.817 462.558 193.19C462.945 192.557 463.595 192.157 464.508 191.99L466.578 191.61V192.65L464.678 192.96C464.151 193.053 463.765 193.243 463.518 193.53C463.271 193.81 463.121 194.223 463.068 194.77C463.448 194.217 464.025 193.94 464.798 193.94ZM464.558 198.13C464.978 198.13 465.308 197.98 465.548 197.68C465.795 197.373 465.918 196.98 465.918 196.5C465.918 196.033 465.795 195.653 465.548 195.36C465.308 195.06 464.981 194.91 464.568 194.91C464.155 194.91 463.818 195.053 463.558 195.34C463.298 195.62 463.168 196 463.168 196.48C463.168 196.973 463.291 197.373 463.538 197.68C463.791 197.98 464.131 198.13 464.558 198.13ZM468.665 194.52C469.131 194.027 469.738 193.78 470.485 193.78C471.231 193.78 471.835 194.027 472.295 194.52C472.761 195.013 472.995 195.657 472.995 196.45C472.995 197.243 472.761 197.887 472.295 198.38C471.835 198.873 471.231 199.12 470.485 199.12C469.738 199.12 469.131 198.873 468.665 198.38C468.205 197.887 467.975 197.243 467.975 196.45C467.975 195.657 468.205 195.013 468.665 194.52ZM469.495 197.65C469.741 197.957 470.071 198.11 470.485 198.11C470.898 198.11 471.225 197.957 471.465 197.65C471.711 197.343 471.835 196.943 471.835 196.45C471.835 195.957 471.711 195.557 471.465 195.25C471.225 194.943 470.898 194.79 470.485 194.79C470.071 194.79 469.741 194.943 469.495 195.25C469.255 195.557 469.135 195.957 469.135 196.45C469.135 196.943 469.255 197.343 469.495 197.65ZM473.59 194.9V193.9H477.99V194.9H476.36V199H475.22V194.9H473.59ZM480.21 199H479.07V193.9H480.21V196.02L482.17 193.9H483.52L481.32 196.29L483.55 199H482.17L480.21 196.62V199ZM488.974 193.9V199H487.854V195.61L485.544 199H484.444V193.9H485.564V197.3L487.874 193.9H488.974Z" fill="white"/>
<path d="M137 186H135.81V178.96H137V182.01L139.82 178.96H141.27L138.18 182.33L141.33 186H139.83L137 182.76V186ZM142.264 181.52C142.731 181.027 143.338 180.78 144.084 180.78C144.831 180.78 145.434 181.027 145.894 181.52C146.361 182.013 146.594 182.657 146.594 183.45C146.594 184.243 146.361 184.887 145.894 185.38C145.434 185.873 144.831 186.12 144.084 186.12C143.338 186.12 142.731 185.873 142.264 185.38C141.804 184.887 141.574 184.243 141.574 183.45C141.574 182.657 141.804 182.013 142.264 181.52ZM143.094 184.65C143.341 184.957 143.671 185.11 144.084 185.11C144.498 185.11 144.824 184.957 145.064 184.65C145.311 184.343 145.434 183.943 145.434 183.45C145.434 182.957 145.311 182.557 145.064 182.25C144.824 181.943 144.498 181.79 144.084 181.79C143.671 181.79 143.341 181.943 143.094 182.25C142.854 182.557 142.734 182.957 142.734 183.45C142.734 183.943 142.854 184.343 143.094 184.65ZM147.785 180.9H149.225L150.845 184.6L152.465 180.9H153.885V186H152.785V182.51L151.255 185.98H150.415L148.885 182.52V186H147.785V180.9ZM158.355 182.62C158.355 182.333 158.262 182.113 158.075 181.96C157.895 181.8 157.655 181.72 157.355 181.72C156.815 181.72 156.478 181.917 156.345 182.31H155.265C155.345 181.87 155.568 181.507 155.935 181.22C156.308 180.927 156.795 180.78 157.395 180.78C158.028 180.78 158.532 180.943 158.905 181.27C159.285 181.597 159.475 182.053 159.475 182.64V186H158.415V185.42C158.042 185.887 157.515 186.12 156.835 186.12C156.328 186.12 155.905 185.977 155.565 185.69C155.232 185.397 155.065 185.007 155.065 184.52C155.065 184.013 155.245 183.62 155.605 183.34C155.972 183.053 156.475 182.91 157.115 182.91H158.355V182.62ZM157.085 185.19C157.438 185.19 157.738 185.09 157.985 184.89C158.232 184.683 158.355 184.413 158.355 184.08V183.77H157.195C156.895 183.77 156.655 183.833 156.475 183.96C156.302 184.08 156.215 184.253 156.215 184.48C156.215 184.707 156.295 184.883 156.455 185.01C156.615 185.13 156.825 185.19 157.085 185.19ZM162.054 186H160.914V180.9H162.054V182.86H164.244V180.9H165.384V186H164.244V183.87H162.054V186ZM172.124 185V187.28H171.024V186H167.424V187.28H166.324V185H166.734C167.034 184.833 167.224 184.303 167.304 183.41L167.494 180.9H171.384V185H172.124ZM168.384 183.45C168.324 184.237 168.18 184.753 167.954 185H170.244V181.9H168.504L168.384 183.45ZM176.184 182.62C176.184 182.333 176.091 182.113 175.904 181.96C175.724 181.8 175.484 181.72 175.184 181.72C174.644 181.72 174.308 181.917 174.174 182.31H173.094C173.174 181.87 173.398 181.507 173.764 181.22C174.138 180.927 174.624 180.78 175.224 180.78C175.858 180.78 176.361 180.943 176.734 181.27C177.114 181.597 177.304 182.053 177.304 182.64V186H176.244V185.42C175.871 185.887 175.344 186.12 174.664 186.12C174.158 186.12 173.734 185.977 173.394 185.69C173.061 185.397 172.894 185.007 172.894 184.52C172.894 184.013 173.074 183.62 173.434 183.34C173.801 183.053 174.304 182.91 174.944 182.91H176.184V182.62ZM174.914 185.19C175.268 185.19 175.568 185.09 175.814 184.89C176.061 184.683 176.184 184.413 176.184 184.08V183.77H175.024C174.724 183.77 174.484 183.833 174.304 183.96C174.131 184.08 174.044 184.253 174.044 184.48C174.044 184.707 174.124 184.883 174.284 185.01C174.444 185.13 174.654 185.19 174.914 185.19ZM140.95 198V200.28H139.85V199H136.25V200.28H135.15V198H135.56C135.86 197.833 136.05 197.303 136.13 196.41L136.32 193.9H140.21V198H140.95ZM137.21 196.45C137.15 197.237 137.007 197.753 136.78 198H139.07V194.9H137.33L137.21 196.45ZM146.55 193.9V199H145.43V195.61L143.12 199H142.02V193.9H143.14V197.3L145.45 193.9H146.55ZM147.789 195.33C147.842 194.843 148.065 194.463 148.459 194.19C148.859 193.917 149.339 193.78 149.899 193.78C150.445 193.78 150.895 193.913 151.249 194.18C151.602 194.447 151.779 194.8 151.779 195.24C151.779 195.773 151.532 196.143 151.039 196.35C151.285 196.403 151.502 196.53 151.689 196.73C151.882 196.923 151.979 197.19 151.979 197.53C151.979 198.003 151.782 198.387 151.389 198.68C151.002 198.973 150.499 199.12 149.879 199.12C149.279 199.12 148.782 198.977 148.389 198.69C147.995 198.403 147.765 198.007 147.699 197.5H148.809C148.862 197.72 148.982 197.89 149.169 198.01C149.362 198.123 149.599 198.18 149.879 198.18C150.172 198.18 150.405 198.12 150.579 198C150.752 197.873 150.839 197.7 150.839 197.48C150.839 197.067 150.522 196.86 149.889 196.86H149.139V195.96H149.829C150.095 195.96 150.299 195.907 150.439 195.8C150.585 195.687 150.659 195.53 150.659 195.33C150.659 195.137 150.582 194.987 150.429 194.88C150.282 194.773 150.085 194.72 149.839 194.72C149.579 194.72 149.365 194.777 149.199 194.89C149.032 195.003 148.925 195.15 148.879 195.33H147.789ZM156.167 195.62C156.167 195.333 156.074 195.113 155.887 194.96C155.707 194.8 155.467 194.72 155.167 194.72C154.627 194.72 154.291 194.917 154.157 195.31H153.077C153.157 194.87 153.381 194.507 153.747 194.22C154.121 193.927 154.607 193.78 155.207 193.78C155.841 193.78 156.344 193.943 156.717 194.27C157.097 194.597 157.287 195.053 157.287 195.64V199H156.227V198.42C155.854 198.887 155.327 199.12 154.647 199.12C154.141 199.12 153.717 198.977 153.377 198.69C153.044 198.397 152.877 198.007 152.877 197.52C152.877 197.013 153.057 196.62 153.417 196.34C153.784 196.053 154.287 195.91 154.927 195.91H156.167V195.62ZM154.897 198.19C155.251 198.19 155.551 198.09 155.797 197.89C156.044 197.683 156.167 197.413 156.167 197.08V196.77H155.007C154.707 196.77 154.467 196.833 154.287 196.96C154.114 197.08 154.027 197.253 154.027 197.48C154.027 197.707 154.107 197.883 154.267 198.01C154.427 198.13 154.637 198.19 154.897 198.19ZM163.257 193.9V199H162.137V195.61L159.827 199H158.727V193.9H159.847V197.3L162.157 193.9H163.257ZM160.227 191.59C160.227 191.83 160.293 192.03 160.427 192.19C160.56 192.35 160.75 192.43 160.997 192.43C161.243 192.43 161.433 192.35 161.567 192.19C161.7 192.03 161.767 191.83 161.767 191.59H162.687C162.673 192.09 162.513 192.49 162.207 192.79C161.907 193.09 161.503 193.24 160.997 193.24C160.49 193.24 160.083 193.09 159.777 192.79C159.477 192.49 159.32 192.09 159.307 191.59H160.227ZM165.875 199H164.735V193.9H165.875V195.86H168.065V193.9H169.205V199H168.065V196.87H165.875V199ZM175.155 196.78H171.565V196.8C171.565 197.193 171.691 197.52 171.945 197.78C172.198 198.04 172.528 198.17 172.935 198.17C173.215 198.17 173.445 198.113 173.625 198C173.811 197.88 173.928 197.753 173.975 197.62H175.095C175.015 198.007 174.788 198.353 174.415 198.66C174.048 198.967 173.548 199.12 172.915 199.12C172.155 199.12 171.545 198.883 171.085 198.41C170.625 197.93 170.395 197.28 170.395 196.46C170.395 195.64 170.621 194.99 171.075 194.51C171.528 194.023 172.118 193.78 172.845 193.78C173.545 193.78 174.105 194.01 174.525 194.47C174.945 194.93 175.155 195.543 175.155 196.31V196.78ZM172.835 194.73C172.475 194.73 172.181 194.837 171.955 195.05C171.735 195.263 171.608 195.553 171.575 195.92H174.015C174.001 195.547 173.888 195.257 173.675 195.05C173.468 194.837 173.188 194.73 172.835 194.73ZM179.021 193.78C179.655 193.78 180.188 194.017 180.621 194.49C181.061 194.963 181.281 195.617 181.281 196.45C181.281 197.283 181.058 197.937 180.611 198.41C180.171 198.883 179.631 199.12 178.991 199.12C178.638 199.12 178.328 199.057 178.061 198.93C177.801 198.797 177.608 198.63 177.481 198.43V200.91H176.341V193.9H177.441V194.56C177.761 194.04 178.288 193.78 179.021 193.78ZM178.801 198.11C179.201 198.11 179.521 197.96 179.761 197.66C180.008 197.353 180.131 196.95 180.131 196.45C180.131 195.957 180.008 195.557 179.761 195.25C179.521 194.943 179.201 194.79 178.801 194.79C178.395 194.79 178.068 194.94 177.821 195.24C177.575 195.533 177.451 195.93 177.451 196.43V196.47C177.451 196.97 177.575 197.37 177.821 197.67C178.068 197.963 178.395 198.11 178.801 198.11ZM182.867 194.52C183.333 194.027 183.94 193.78 184.687 193.78C185.433 193.78 186.037 194.027 186.497 194.52C186.963 195.013 187.197 195.657 187.197 196.45C187.197 197.243 186.963 197.887 186.497 198.38C186.037 198.873 185.433 199.12 184.687 199.12C183.94 199.12 183.333 198.873 182.867 198.38C182.407 197.887 182.177 197.243 182.177 196.45C182.177 195.657 182.407 195.013 182.867 194.52ZM183.697 197.65C183.943 197.957 184.273 198.11 184.687 198.11C185.1 198.11 185.427 197.957 185.667 197.65C185.913 197.343 186.037 196.943 186.037 196.45C186.037 195.957 185.913 195.557 185.667 195.25C185.427 194.943 185.1 194.79 184.687 194.79C184.273 194.79 183.943 194.943 183.697 195.25C183.457 195.557 183.337 195.957 183.337 196.45C183.337 196.943 183.457 197.343 183.697 197.65ZM188.387 199V193.9H190.677C191.224 193.9 191.64 194.023 191.927 194.27C192.214 194.517 192.357 194.833 192.357 195.22C192.357 195.5 192.287 195.733 192.147 195.92C192.014 196.1 191.847 196.23 191.647 196.31C191.907 196.383 192.124 196.527 192.297 196.74C192.477 196.953 192.567 197.223 192.567 197.55C192.567 197.977 192.407 198.327 192.087 198.6C191.774 198.867 191.337 199 190.777 199H188.387ZM190.637 196.82H189.507V198.12H190.637C190.89 198.12 191.084 198.063 191.217 197.95C191.357 197.83 191.427 197.667 191.427 197.46C191.427 197.033 191.164 196.82 190.637 196.82ZM190.537 194.78H189.507V195.96H190.537C190.757 195.96 190.927 195.907 191.047 195.8C191.174 195.693 191.237 195.547 191.237 195.36C191.237 194.973 191.004 194.78 190.537 194.78Z" fill="white"/>
<path d="M32.78 135.96H34.02L36.64 143H35.39L34.78 141.33H32L31.42 143H30.17L32.78 135.96ZM33.39 137.38L32.37 140.3H34.42L33.39 137.38ZM40.2669 137.78C40.9002 137.78 41.4335 138.017 41.8669 138.49C42.3069 138.963 42.5269 139.617 42.5269 140.45C42.5269 141.283 42.3035 141.937 41.8569 142.41C41.4169 142.883 40.8769 143.12 40.2369 143.12C39.8835 143.12 39.5735 143.057 39.3069 142.93C39.0469 142.797 38.8535 142.63 38.7269 142.43V144.91H37.5869V137.9H38.6869V138.56C39.0069 138.04 39.5335 137.78 40.2669 137.78ZM40.0469 142.11C40.4469 142.11 40.7669 141.96 41.0069 141.66C41.2535 141.353 41.3769 140.95 41.3769 140.45C41.3769 139.957 41.2535 139.557 41.0069 139.25C40.7669 138.943 40.4469 138.79 40.0469 138.79C39.6402 138.79 39.3135 138.94 39.0669 139.24C38.8202 139.533 38.6969 139.93 38.6969 140.43V140.47C38.6969 140.97 38.8202 141.37 39.0669 141.67C39.3135 141.963 39.6402 142.11 40.0469 142.11ZM43.1267 138.9V137.9H47.5267V138.9H45.8967V143H44.7567V138.9H43.1267ZM50.7649 140.81V139.76H53.9449V140.81H50.7649ZM62.8293 142V144.28H61.7293V143H58.1293V144.28H57.0293V142H57.4393C57.7393 141.833 57.9293 141.303 58.0093 140.41L58.1993 137.9H62.0893V142H62.8293ZM59.0893 140.45C59.0293 141.237 58.886 141.753 58.6593 142H60.9493V138.9H59.2093L59.0893 140.45ZM68.4298 137.9V143H67.3098V139.61L64.9998 143H63.8998V137.9H65.0198V141.3L67.3298 137.9H68.4298ZM72.588 137.78C73.2213 137.78 73.7546 138.017 74.188 138.49C74.628 138.963 74.848 139.617 74.848 140.45C74.848 141.283 74.6246 141.937 74.178 142.41C73.738 142.883 73.198 143.12 72.558 143.12C72.2046 143.12 71.8946 143.057 71.628 142.93C71.368 142.797 71.1746 142.63 71.048 142.43V144.91H69.908V137.9H71.008V138.56C71.328 138.04 71.8546 137.78 72.588 137.78ZM72.368 142.11C72.768 142.11 73.088 141.96 73.328 141.66C73.5746 141.353 73.698 140.95 73.698 140.45C73.698 139.957 73.5746 139.557 73.328 139.25C73.088 138.943 72.768 138.79 72.368 138.79C71.9613 138.79 71.6346 138.94 71.388 139.24C71.1413 139.533 71.018 139.93 71.018 140.43V140.47C71.018 140.97 71.1413 141.37 71.388 141.67C71.6346 141.963 71.9613 142.11 72.368 142.11ZM80.5034 140.78H76.9134V140.8C76.9134 141.193 77.04 141.52 77.2934 141.78C77.5467 142.04 77.8767 142.17 78.2834 142.17C78.5634 142.17 78.7934 142.113 78.9734 142C79.16 141.88 79.2767 141.753 79.3234 141.62H80.4434C80.3634 142.007 80.1367 142.353 79.7634 142.66C79.3967 142.967 78.8967 143.12 78.2634 143.12C77.5034 143.12 76.8934 142.883 76.4334 142.41C75.9734 141.93 75.7434 141.28 75.7434 140.46C75.7434 139.64 75.97 138.99 76.4234 138.51C76.8767 138.023 77.4667 137.78 78.1934 137.78C78.8934 137.78 79.4534 138.01 79.8734 138.47C80.2934 138.93 80.5034 139.543 80.5034 140.31V140.78ZM78.1834 138.73C77.8234 138.73 77.53 138.837 77.3034 139.05C77.0834 139.263 76.9567 139.553 76.9234 139.92H79.3634C79.35 139.547 79.2367 139.257 79.0234 139.05C78.8167 138.837 78.5367 138.73 78.1834 138.73ZM82.83 143H81.69V137.9H82.83V140.02L84.79 137.9H86.14L83.94 140.29L86.17 143H84.79L82.83 140.62V143ZM86.6634 138.9V137.9H91.0634V138.9H89.4334V143H88.2934V138.9H86.6634ZM92.3486 138.52C92.8153 138.027 93.4219 137.78 94.1686 137.78C94.9153 137.78 95.5186 138.027 95.9786 138.52C96.4453 139.013 96.6786 139.657 96.6786 140.45C96.6786 141.243 96.4453 141.887 95.9786 142.38C95.5186 142.873 94.9153 143.12 94.1686 143.12C93.4219 143.12 92.8153 142.873 92.3486 142.38C91.8886 141.887 91.6586 141.243 91.6586 140.45C91.6586 139.657 91.8886 139.013 92.3486 138.52ZM93.1786 141.65C93.4253 141.957 93.7553 142.11 94.1686 142.11C94.5819 142.11 94.9086 141.957 95.1486 141.65C95.3953 141.343 95.5186 140.943 95.5186 140.45C95.5186 139.957 95.3953 139.557 95.1486 139.25C94.9086 138.943 94.5819 138.79 94.1686 138.79C93.7553 138.79 93.4253 138.943 93.1786 139.25C92.9386 139.557 92.8186 139.957 92.8186 140.45C92.8186 140.943 92.9386 141.343 93.1786 141.65ZM100.549 137.78C101.182 137.78 101.716 138.017 102.149 138.49C102.589 138.963 102.809 139.617 102.809 140.45C102.809 141.283 102.586 141.937 102.139 142.41C101.699 142.883 101.159 143.12 100.519 143.12C100.166 143.12 99.8556 143.057 99.5889 142.93C99.3289 142.797 99.1356 142.63 99.0089 142.43V144.91H97.8689V137.9H98.9689V138.56C99.2889 138.04 99.8156 137.78 100.549 137.78ZM100.329 142.11C100.729 142.11 101.049 141.96 101.289 141.66C101.536 141.353 101.659 140.95 101.659 140.45C101.659 139.957 101.536 139.557 101.289 139.25C101.049 138.943 100.729 138.79 100.329 138.79C99.9222 138.79 99.5956 138.94 99.3489 139.24C99.1022 139.533 98.9789 139.93 98.9789 140.43V140.47C98.9789 140.97 99.1022 141.37 99.3489 141.67C99.5956 141.963 99.9222 142.11 100.329 142.11Z" fill="white"/>
<path d="M284.33 137.03V135.96H289.95V137.03H287.74V143H286.55V137.03H284.33ZM294.896 137.9V143H293.776V139.61L291.466 143H290.366V137.9H291.486V141.3L293.796 137.9H294.896ZM296.374 137.9H297.814L299.434 141.6L301.054 137.9H302.474V143H301.374V139.51L299.844 142.98H299.004L297.474 139.52V143H296.374V137.9ZM303.415 143.02V142.02H303.575C303.855 142.02 304.052 141.943 304.165 141.79C304.285 141.63 304.362 141.353 304.395 140.96L304.645 137.9H308.395V143H307.255V138.9H305.645L305.475 141.04C305.422 141.74 305.255 142.247 304.975 142.56C304.702 142.867 304.285 143.02 303.725 143.02H303.415ZM314.415 137.9V143H313.295V139.61L310.985 143H309.885V137.9H311.005V141.3L313.315 137.9H314.415ZM321.153 142V144.28H320.053V143H316.453V144.28H315.353V142H315.763C316.063 141.833 316.253 141.303 316.333 140.41L316.523 137.9H320.413V142H321.153ZM317.413 140.45C317.353 141.237 317.21 141.753 316.983 142H319.273V138.9H317.533L317.413 140.45Z" fill="white"/>
<path d="M433.33 137.03V135.96H438.95V137.03H436.74V143H435.55V137.03H433.33ZM443.896 137.9V143H442.776V139.61L440.466 143H439.366V137.9H440.486V141.3L442.796 137.9H443.896ZM445.374 137.9H446.814L448.434 141.6L450.054 137.9H451.474V143H450.374V139.51L448.844 142.98H448.004L446.474 139.52V143H445.374V137.9ZM452.415 143.02V142.02H452.575C452.855 142.02 453.052 141.943 453.165 141.79C453.285 141.63 453.362 141.353 453.395 140.96L453.645 137.9H457.395V143H456.255V138.9H454.645L454.475 141.04C454.422 141.74 454.255 142.247 453.975 142.56C453.702 142.867 453.285 143.02 452.725 143.02H452.415ZM463.415 137.9V143H462.295V139.61L459.985 143H458.885V137.9H460.005V141.3L462.315 137.9H463.415ZM470.153 142V144.28H469.053V143H465.453V144.28H464.353V142H464.763C465.063 141.833 465.253 141.303 465.333 140.41L465.523 137.9H469.413V142H470.153ZM466.413 140.45C466.353 141.237 466.21 141.753 465.983 142H468.273V138.9H466.533L466.413 140.45Z" fill="white"/>
<circle cx="119" cy="59" r="34.5" fill="#5A45FB" fill-opacity="0.1" stroke="#5A45FB" stroke-dasharray="5 2"/>
<circle cx="319" cy="59" r="34.5" fill="#0FCD83" fill-opacity="0.1" stroke="#0FCD83" stroke-dasharray="5 2"/>
<circle cx="468" cy="59" r="34.5" fill="#0FCD83" fill-opacity="0.1" stroke="#0FCD83" stroke-dasharray="5 2"/>
<path d="M93.8838 54.96H95.3538L97.6038 60.41L99.8438 54.96H101.294V62H100.164V56.91L98.0738 61.97H97.1138L95.0238 56.91V62H93.8838V54.96ZM107.377 59.78H103.787V59.8C103.787 60.1933 103.913 60.52 104.167 60.78C104.42 61.04 104.75 61.17 105.157 61.17C105.437 61.17 105.667 61.1133 105.847 61C106.033 60.88 106.15 60.7533 106.197 60.62H107.317C107.237 61.0067 107.01 61.3533 106.637 61.66C106.27 61.9667 105.77 62.12 105.137 62.12C104.377 62.12 103.767 61.8833 103.307 61.41C102.847 60.93 102.617 60.28 102.617 59.46C102.617 58.64 102.843 57.99 103.297 57.51C103.75 57.0233 104.34 56.78 105.067 56.78C105.767 56.78 106.327 57.01 106.747 57.47C107.167 57.93 107.377 58.5433 107.377 59.31V59.78ZM105.057 57.73C104.697 57.73 104.403 57.8367 104.177 58.05C103.957 58.2633 103.83 58.5533 103.797 58.92H106.237C106.223 58.5467 106.11 58.2567 105.897 58.05C105.69 57.8367 105.41 57.73 105.057 57.73ZM109.703 62H108.563V56.9H109.703V58.86H111.893V56.9H113.033V62H111.893V59.87H109.703V62ZM118.983 59.78H115.393V59.8C115.393 60.1933 115.52 60.52 115.773 60.78C116.026 61.04 116.356 61.17 116.763 61.17C117.043 61.17 117.273 61.1133 117.453 61C117.64 60.88 117.756 60.7533 117.803 60.62H118.923C118.843 61.0067 118.616 61.3533 118.243 61.66C117.876 61.9667 117.376 62.12 116.743 62.12C115.983 62.12 115.373 61.8833 114.913 61.41C114.453 60.93 114.223 60.28 114.223 59.46C114.223 58.64 114.45 57.99 114.903 57.51C115.356 57.0233 115.946 56.78 116.673 56.78C117.373 56.78 117.933 57.01 118.353 57.47C118.773 57.93 118.983 58.5433 118.983 59.31V59.78ZM116.663 57.73C116.303 57.73 116.01 57.8367 115.783 58.05C115.563 58.2633 115.436 58.5533 115.403 58.92H117.843C117.83 58.5467 117.716 58.2567 117.503 58.05C117.296 57.8367 117.016 57.73 116.663 57.73ZM125.4 61V63.28H124.3V62H120.7V63.28H119.6V61H120.01C120.31 60.8333 120.5 60.3033 120.58 59.41L120.77 56.9H124.66V61H125.4ZM121.66 59.45C121.6 60.2367 121.457 60.7533 121.23 61H123.52V57.9H121.78L121.66 59.45ZM130.141 56.9V59.06L131.921 56.9H133.231L131.251 59.3L133.261 62H131.921L130.141 59.6V62H129.021V59.6L127.241 62H125.911L127.911 59.33L125.931 56.9H127.241L129.021 59.06V56.9H130.141ZM138.404 59.78H134.814V59.8C134.814 60.1933 134.941 60.52 135.194 60.78C135.447 61.04 135.777 61.17 136.184 61.17C136.464 61.17 136.694 61.1133 136.874 61C137.061 60.88 137.177 60.7533 137.224 60.62H138.344C138.264 61.0067 138.037 61.3533 137.664 61.66C137.297 61.9667 136.797 62.12 136.164 62.12C135.404 62.12 134.794 61.8833 134.334 61.41C133.874 60.93 133.644 60.28 133.644 59.46C133.644 58.64 133.871 57.99 134.324 57.51C134.777 57.0233 135.367 56.78 136.094 56.78C136.794 56.78 137.354 57.01 137.774 57.47C138.194 57.93 138.404 58.5433 138.404 59.31V59.78ZM136.084 57.73C135.724 57.73 135.431 57.8367 135.204 58.05C134.984 58.2633 134.857 58.5533 134.824 58.92H137.264C137.251 58.5467 137.137 58.2567 136.924 58.05C136.717 57.8367 136.437 57.73 136.084 57.73ZM142.271 56.78C142.904 56.78 143.437 57.0167 143.871 57.49C144.311 57.9633 144.531 58.6167 144.531 59.45C144.531 60.2833 144.307 60.9367 143.861 61.41C143.421 61.8833 142.881 62.12 142.241 62.12C141.887 62.12 141.577 62.0567 141.311 61.93C141.051 61.7967 140.857 61.63 140.731 61.43V63.91H139.591V56.9H140.691V57.56C141.011 57.04 141.537 56.78 142.271 56.78ZM142.051 61.11C142.451 61.11 142.771 60.96 143.011 60.66C143.257 60.3533 143.381 59.95 143.381 59.45C143.381 58.9567 143.257 58.5567 143.011 58.25C142.771 57.9433 142.451 57.79 142.051 57.79C141.644 57.79 141.317 57.94 141.071 58.24C140.824 58.5333 140.701 58.93 140.701 59.43V59.47C140.701 59.97 140.824 60.37 141.071 60.67C141.317 60.9633 141.644 61.11 142.051 61.11Z" fill="white"/>
<path d="M293.884 54.96H295.354L297.604 60.41L299.844 54.96H301.294V62H300.164V56.91L298.074 61.97H297.114L295.024 56.91V62H293.884V54.96ZM307.377 59.78H303.787V59.8C303.787 60.1933 303.913 60.52 304.167 60.78C304.42 61.04 304.75 61.17 305.157 61.17C305.437 61.17 305.667 61.1133 305.847 61C306.033 60.88 306.15 60.7533 306.197 60.62H307.317C307.237 61.0067 307.01 61.3533 306.637 61.66C306.27 61.9667 305.77 62.12 305.137 62.12C304.377 62.12 303.767 61.8833 303.307 61.41C302.847 60.93 302.617 60.28 302.617 59.46C302.617 58.64 302.843 57.99 303.297 57.51C303.75 57.0233 304.34 56.78 305.067 56.78C305.767 56.78 306.327 57.01 306.747 57.47C307.167 57.93 307.377 58.5433 307.377 59.31V59.78ZM305.057 57.73C304.697 57.73 304.403 57.8367 304.177 58.05C303.957 58.2633 303.83 58.5533 303.797 58.92H306.237C306.223 58.5467 306.11 58.2567 305.897 58.05C305.69 57.8367 305.41 57.73 305.057 57.73ZM309.703 62H308.563V56.9H309.703V58.86H311.893V56.9H313.033V62H311.893V59.87H309.703V62ZM318.983 59.78H315.393V59.8C315.393 60.1933 315.52 60.52 315.773 60.78C316.026 61.04 316.356 61.17 316.763 61.17C317.043 61.17 317.273 61.1133 317.453 61C317.64 60.88 317.756 60.7533 317.803 60.62H318.923C318.843 61.0067 318.616 61.3533 318.243 61.66C317.876 61.9667 317.376 62.12 316.743 62.12C315.983 62.12 315.373 61.8833 314.913 61.41C314.453 60.93 314.223 60.28 314.223 59.46C314.223 58.64 314.45 57.99 314.903 57.51C315.356 57.0233 315.946 56.78 316.673 56.78C317.373 56.78 317.933 57.01 318.353 57.47C318.773 57.93 318.983 58.5433 318.983 59.31V59.78ZM316.663 57.73C316.303 57.73 316.01 57.8367 315.783 58.05C315.563 58.2633 315.436 58.5533 315.403 58.92H317.843C317.83 58.5467 317.716 58.2567 317.503 58.05C317.296 57.8367 317.016 57.73 316.663 57.73ZM325.4 61V63.28H324.3V62H320.7V63.28H319.6V61H320.01C320.31 60.8333 320.5 60.3033 320.58 59.41L320.77 56.9H324.66V61H325.4ZM321.66 59.45C321.6 60.2367 321.457 60.7533 321.23 61H323.52V57.9H321.78L321.66 59.45ZM330.141 56.9V59.06L331.921 56.9H333.231L331.251 59.3L333.261 62H331.921L330.141 59.6V62H329.021V59.6L327.241 62H325.911L327.911 59.33L325.931 56.9H327.241L329.021 59.06V56.9H330.141ZM338.404 59.78H334.814V59.8C334.814 60.1933 334.941 60.52 335.194 60.78C335.447 61.04 335.777 61.17 336.184 61.17C336.464 61.17 336.694 61.1133 336.874 61C337.061 60.88 337.177 60.7533 337.224 60.62H338.344C338.264 61.0067 338.037 61.3533 337.664 61.66C337.297 61.9667 336.797 62.12 336.164 62.12C335.404 62.12 334.794 61.8833 334.334 61.41C333.874 60.93 333.644 60.28 333.644 59.46C333.644 58.64 333.871 57.99 334.324 57.51C334.777 57.0233 335.367 56.78 336.094 56.78C336.794 56.78 337.354 57.01 337.774 57.47C338.194 57.93 338.404 58.5433 338.404 59.31V59.78ZM336.084 57.73C335.724 57.73 335.431 57.8367 335.204 58.05C334.984 58.2633 334.857 58.5533 334.824 58.92H337.264C337.251 58.5467 337.137 58.2567 336.924 58.05C336.717 57.8367 336.437 57.73 336.084 57.73ZM342.271 56.78C342.904 56.78 343.437 57.0167 343.871 57.49C344.311 57.9633 344.531 58.6167 344.531 59.45C344.531 60.2833 344.307 60.9367 343.861 61.41C343.421 61.8833 342.881 62.12 342.241 62.12C341.887 62.12 341.577 62.0567 341.311 61.93C341.051 61.7967 340.857 61.63 340.731 61.43V63.91H339.591V56.9H340.691V57.56C341.011 57.04 341.537 56.78 342.271 56.78ZM342.051 61.11C342.451 61.11 342.771 60.96 343.011 60.66C343.257 60.3533 343.381 59.95 343.381 59.45C343.381 58.9567 343.257 58.5567 343.011 58.25C342.771 57.9433 342.451 57.79 342.051 57.79C341.644 57.79 341.317 57.94 341.071 58.24C340.824 58.5333 340.701 58.93 340.701 59.43V59.47C340.701 59.97 340.824 60.37 341.071 60.67C341.317 60.9633 341.644 61.11 342.051 61.11Z" fill="white"/>
<path d="M442.884 54.96H444.354L446.604 60.41L448.844 54.96H450.294V62H449.164V56.91L447.074 61.97H446.114L444.024 56.91V62H442.884V54.96ZM456.377 59.78H452.787V59.8C452.787 60.1933 452.913 60.52 453.167 60.78C453.42 61.04 453.75 61.17 454.157 61.17C454.437 61.17 454.667 61.1133 454.847 61C455.033 60.88 455.15 60.7533 455.197 60.62H456.317C456.237 61.0067 456.01 61.3533 455.637 61.66C455.27 61.9667 454.77 62.12 454.137 62.12C453.377 62.12 452.767 61.8833 452.307 61.41C451.847 60.93 451.617 60.28 451.617 59.46C451.617 58.64 451.843 57.99 452.297 57.51C452.75 57.0233 453.34 56.78 454.067 56.78C454.767 56.78 455.327 57.01 455.747 57.47C456.167 57.93 456.377 58.5433 456.377 59.31V59.78ZM454.057 57.73C453.697 57.73 453.403 57.8367 453.177 58.05C452.957 58.2633 452.83 58.5533 452.797 58.92H455.237C455.223 58.5467 455.11 58.2567 454.897 58.05C454.69 57.8367 454.41 57.73 454.057 57.73ZM458.703 62H457.563V56.9H458.703V58.86H460.893V56.9H462.033V62H460.893V59.87H458.703V62ZM467.983 59.78H464.393V59.8C464.393 60.1933 464.52 60.52 464.773 60.78C465.026 61.04 465.356 61.17 465.763 61.17C466.043 61.17 466.273 61.1133 466.453 61C466.64 60.88 466.756 60.7533 466.803 60.62H467.923C467.843 61.0067 467.616 61.3533 467.243 61.66C466.876 61.9667 466.376 62.12 465.743 62.12C464.983 62.12 464.373 61.8833 463.913 61.41C463.453 60.93 463.223 60.28 463.223 59.46C463.223 58.64 463.45 57.99 463.903 57.51C464.356 57.0233 464.946 56.78 465.673 56.78C466.373 56.78 466.933 57.01 467.353 57.47C467.773 57.93 467.983 58.5433 467.983 59.31V59.78ZM465.663 57.73C465.303 57.73 465.01 57.8367 464.783 58.05C464.563 58.2633 464.436 58.5533 464.403 58.92H466.843C466.83 58.5467 466.716 58.2567 466.503 58.05C466.296 57.8367 466.016 57.73 465.663 57.73ZM474.4 61V63.28H473.3V62H469.7V63.28H468.6V61H469.01C469.31 60.8333 469.5 60.3033 469.58 59.41L469.77 56.9H473.66V61H474.4ZM470.66 59.45C470.6 60.2367 470.457 60.7533 470.23 61H472.52V57.9H470.78L470.66 59.45ZM479.141 56.9V59.06L480.921 56.9H482.231L480.251 59.3L482.261 62H480.921L479.141 59.6V62H478.021V59.6L476.241 62H474.911L476.911 59.33L474.931 56.9H476.241L478.021 59.06V56.9H479.141ZM487.404 59.78H483.814V59.8C483.814 60.1933 483.941 60.52 484.194 60.78C484.447 61.04 484.777 61.17 485.184 61.17C485.464 61.17 485.694 61.1133 485.874 61C486.061 60.88 486.177 60.7533 486.224 60.62H487.344C487.264 61.0067 487.037 61.3533 486.664 61.66C486.297 61.9667 485.797 62.12 485.164 62.12C484.404 62.12 483.794 61.8833 483.334 61.41C482.874 60.93 482.644 60.28 482.644 59.46C482.644 58.64 482.871 57.99 483.324 57.51C483.777 57.0233 484.367 56.78 485.094 56.78C485.794 56.78 486.354 57.01 486.774 57.47C487.194 57.93 487.404 58.5433 487.404 59.31V59.78ZM485.084 57.73C484.724 57.73 484.431 57.8367 484.204 58.05C483.984 58.2633 483.857 58.5533 483.824 58.92H486.264C486.251 58.5467 486.137 58.2567 485.924 58.05C485.717 57.8367 485.437 57.73 485.084 57.73ZM491.271 56.78C491.904 56.78 492.437 57.0167 492.871 57.49C493.311 57.9633 493.531 58.6167 493.531 59.45C493.531 60.2833 493.307 60.9367 492.861 61.41C492.421 61.8833 491.881 62.12 491.241 62.12C490.887 62.12 490.577 62.0567 490.311 61.93C490.051 61.7967 489.857 61.63 489.731 61.43V63.91H488.591V56.9H489.691V57.56C490.011 57.04 490.537 56.78 491.271 56.78ZM491.051 61.11C491.451 61.11 491.771 60.96 492.011 60.66C492.257 60.3533 492.381 59.95 492.381 59.45C492.381 58.9567 492.257 58.5567 492.011 58.25C491.771 57.9433 491.451 57.79 491.051 57.79C490.644 57.79 490.317 57.94 490.071 58.24C489.824 58.5333 489.701 58.93 489.701 59.43V59.47C489.701 59.97 489.824 60.37 490.071 60.67C490.317 60.9633 490.644 61.11 491.051 61.11Z" fill="white"/>
<path d="M119 93.5V104.5" stroke="#5A45FB"/>
<path d="M319 94V105" stroke="#0FCD83"/>
<path d="M468 94V105" stroke="#0FCD83"/>
</svg>
